<?xml version="1.0" standalone="no"?>
<!DOCTYPE svg PUBLIC "-//W3C//DTD SVG 20010904//EN"
 "http://www.w3.org/TR/2001/REC-SVG-20010904/DTD/svg10.dtd">
<svg version="1.0" xmlns="http://www.w3.org/2000/svg"
 width="506.000000pt" height="506.000000pt" viewBox="0 0 506.000000 506.000000"
 preserveAspectRatio="xMidYMid meet">
<metadata>
Created by potrace 1.11, written by Peter Selinger 2001-2013
</metadata>
<g transform="translate(0.000000,506.000000) scale(0.100000,-0.100000)"
fill="#000000" stroke="none">
<path d="M4 5003 c0 -41 3 -53 15 -53 12 0 12 3 3 12 -7 7 -12 16 -12 21 0 5
8 1 18 -10 9 -10 13 -13 8 -6 -13 20 1 28 20 12 16 -13 16 -12 4 8 -12 18 -17
20 -29 10 -12 -10 -13 -9 -6 2 6 10 4 12 -4 6 -10 -6 -11 -3 -2 12 6 11 7 24
3 28 -4 4 3 2 15 -4 18 -9 22 -9 17 2 -2 7 -15 13 -27 13 -20 0 -22 -5 -23
-53z"/>
<path d="M64 5041 c1 -10 -6 -15 -16 -13 -10 2 -18 -1 -18 -5 0 -5 16 -9 35
-10 19 0 35 3 35 8 0 5 -5 9 -11 9 -5 0 -7 5 -3 11 4 8 10 5 17 -7 6 -11 15
-23 21 -27 7 -5 4 -6 -7 -3 -12 4 -17 2 -14 -6 2 -7 13 -12 23 -10 18 3 18 3
0 -11 -19 -14 -19 -15 1 -25 20 -11 33 -7 33 9 0 5 -8 6 -17 3 -15 -5 -16 -4
-3 5 11 8 18 7 27 -6 13 -17 8 -37 -7 -28 -8 5 -25 -24 -21 -38 1 -5 -3 -6 -9
-2 -6 3 -8 11 -5 16 15 24 -21 5 -43 -22 -11 -14 -9 -16 13 -16 22 0 24 2 13
16 -10 13 -10 14 2 4 8 -7 15 -20 16 -28 2 -11 -2 -12 -16 -5 -13 7 -20 6 -23
-3 -4 -9 -8 -9 -15 2 -6 8 -12 9 -16 3 -8 -13 19 -23 41 -16 15 5 16 4 3 -5
-8 -6 -22 -8 -31 -6 -10 3 -16 -1 -16 -10 0 -9 6 -14 13 -11 9 3 11 -3 8 -20
-3 -16 -1 -23 6 -19 5 3 10 1 10 -5 0 -7 -7 -9 -16 -6 -9 3 -18 6 -21 6 -3 0
0 7 7 15 9 11 9 15 1 15 -21 0 -25 -32 -6 -46 10 -8 15 -17 10 -21 -4 -5 -10
-2 -12 5 -4 10 -8 10 -19 1 -23 -19 -16 -26 21 -23 19 1 35 -2 35 -7 0 -6 -4
-8 -9 -4 -6 3 -14 -3 -20 -12 -10 -17 -10 -17 -11 0 0 9 -5 17 -11 17 -5 0 -7
-6 -3 -12 4 -7 -2 -5 -13 5 -21 18 -21 18 -20 -35 1 -31 8 -57 16 -64 11 -9
11 -13 0 -25 -20 -20 -23 -50 -7 -60 7 -5 8 -9 2 -9 -15 0 -17 -110 -1 -110 8
0 7 -4 -3 -10 -13 -9 -13 -11 0 -20 8 -5 10 -10 4 -10 -7 0 -11 -30 -11 -85 0
-47 4 -85 9 -85 4 0 8 -5 8 -11 0 -5 -4 -8 -8 -5 -5 3 -8 -35 -8 -84 0 -49 3
-88 6 -88 18 1 23 -4 10 -12 -8 -5 -15 -26 -16 -49 0 -22 3 -38 8 -35 4 3 8 0
8 -5 0 -6 -4 -11 -8 -11 -5 0 -9 -7 -9 -15 0 -8 4 -12 9 -9 10 6 11 -10 1 -20
-10 -10 -11 -46 -1 -40 11 7 10 -9 -2 -24 -7 -9 -7 -9 2 -2 17 14 31 12 21 -2
-4 -7 -6 -22 -4 -33 l3 -20 -16 20 c-11 14 -15 15 -14 5 4 -18 30 -40 40 -34
5 3 8 2 9 -3 0 -4 2 -16 4 -26 2 -11 -1 -16 -8 -14 -7 3 -11 9 -10 15 2 7 -4
9 -14 5 -10 -4 -14 -2 -9 5 3 6 3 13 -1 15 -5 3 -8 -57 -8 -133 0 -115 2 -137
14 -132 9 3 12 1 7 -6 -4 -8 3 -16 20 -22 15 -6 24 -13 21 -16 -3 -3 -19 0
-35 8 -23 12 -29 12 -29 2 0 -7 4 -11 8 -9 4 3 10 -2 13 -11 9 -23 7 -31 -3
-15 -6 9 -11 10 -15 2 -4 -6 -2 -12 3 -12 26 -3 30 -4 34 -9 3 -3 -1 -11 -9
-18 -8 -7 -14 -8 -14 -2 0 5 -4 10 -8 10 -5 0 -9 -7 -9 -15 0 -8 5 -11 10 -8
7 4 8 -1 3 -13 -16 -40 -15 -53 2 -47 14 6 15 4 5 -9 -7 -8 -10 -18 -6 -21 3
-4 2 -7 -4 -7 -5 0 -10 -7 -10 -14 0 -12 5 -13 21 -4 18 10 19 9 9 -3 -16 -19
-2 -40 25 -40 12 1 32 1 44 2 11 0 25 -6 30 -13 6 -9 7 -6 3 8 -7 28 22 55 37
33 8 -12 9 -12 5 1 -2 9 -14 14 -27 12 -19 -2 -21 0 -11 12 7 8 19 12 27 9 8
-3 14 0 14 7 0 6 -5 8 -10 5 -6 -3 -13 1 -16 9 -3 9 -11 16 -16 16 -6 0 -5 -6
2 -15 8 -10 9 -15 2 -15 -10 0 -32 30 -32 43 0 3 11 4 24 3 18 -2 23 1 18 12
-3 8 -1 13 4 9 5 -3 24 7 42 23 19 16 39 31 45 33 9 3 8 8 -2 18 -9 9 -11 9
-7 2 4 -7 4 -13 -1 -13 -4 0 -22 -12 -38 -28 -36 -32 -52 -37 -71 -21 -15 12
-20 44 -5 35 11 -7 19 12 16 42 -1 15 3 21 11 18 7 -3 16 -1 19 4 10 16 22 11
28 -10 3 -12 -3 -29 -15 -43 -15 -16 -18 -18 -14 -4 9 27 13 43 9 34 -3 -4
-10 -4 -16 0 -6 4 -8 0 -4 -9 3 -9 -1 -25 -9 -37 -9 -12 -11 -21 -5 -21 6 0
11 5 11 11 0 5 4 8 9 5 11 -7 53 29 44 38 -3 3 -1 6 5 6 7 0 12 5 12 11 0 5
-4 8 -9 5 -5 -3 -11 3 -14 14 -4 16 -11 20 -34 16 -15 -3 -32 -2 -38 2 -14 10
-17 32 -5 32 6 0 10 -4 10 -10 0 -5 5 -10 11 -10 8 0 7 6 -2 17 -12 15 -12 16
4 10 10 -4 21 -7 23 -7 3 0 2 -4 -1 -10 -3 -5 -2 -10 4 -10 5 0 8 14 6 31 -2
20 0 29 8 26 6 -2 12 -14 12 -28 2 -34 15 -60 27 -53 7 4 5 10 -4 15 -10 6
-14 19 -12 39 2 19 -1 30 -9 30 -8 0 -7 4 3 10 19 12 30 -5 25 -42 -2 -15 1
-28 6 -28 6 0 8 8 4 19 -7 23 33 38 42 15 4 -12 7 -12 17 2 10 14 8 21 -11 40
-23 23 -32 51 -13 39 5 -3 18 -1 29 4 14 8 22 7 32 -5 15 -18 55 -14 51 5 -2
8 3 11 13 8 8 -4 15 -2 15 4 0 6 -8 9 -17 7 -10 -2 -17 -10 -16 -16 2 -7 -7
-12 -19 -12 -20 0 -20 1 -5 18 10 10 17 23 17 28 0 4 -7 -2 -16 -14 -13 -19
-19 -21 -30 -11 -11 9 -18 9 -26 1 -7 -7 -17 -12 -22 -12 -6 1 0 10 13 20 13
11 18 20 12 20 -6 0 -11 5 -11 11 0 6 9 8 20 4 12 -4 20 -2 20 5 0 6 -4 9 -9
5 -13 -7 -39 32 -36 53 1 9 0 11 -2 4 -3 -7 -8 -10 -13 -7 -5 3 -7 12 -3 20 7
20 -11 19 -28 -2 -12 -14 -12 -16 0 -9 9 6 12 5 9 -4 -2 -7 -14 -15 -27 -17
-13 -2 -36 -13 -53 -24 -16 -12 -32 -19 -34 -16 -3 3 6 13 20 22 14 10 23 22
19 28 -4 6 0 8 10 4 9 -3 27 6 46 24 30 28 41 46 21 34 -17 -10 -11 7 7 20 18
14 8 39 -12 31 -8 -3 -16 0 -19 7 -3 7 -4 3 -3 -8 1 -14 -5 -21 -22 -23 -15
-2 -21 0 -16 7 3 6 10 9 14 6 4 -2 7 8 6 23 -3 46 -4 47 -21 24 -8 -12 -20
-20 -25 -17 -5 4 -9 1 -9 -4 0 -16 16 -13 34 5 14 14 16 14 16 0 0 -8 -7 -19
-16 -24 -13 -8 -14 -13 -4 -31 21 -40 5 -32 -23 11 -15 23 -27 38 -28 33 0 -6
-4 -1 -9 10 -8 18 -9 17 -7 -6 1 -17 6 -25 14 -22 7 3 13 0 13 -7 0 -6 -10
-10 -22 -8 -16 2 -22 9 -20 22 3 15 1 16 -11 5 -13 -12 -13 -15 -1 -22 8 -4
14 -12 14 -18 0 -5 -10 -3 -23 6 -23 15 -28 39 -13 63 4 6 2 12 -3 12 -11 0
-15 -13 -12 -39 3 -18 -16 -5 -30 21 -10 18 -9 20 4 15 14 -5 15 -2 7 19 -6
14 -10 26 -10 28 0 1 14 2 31 1 39 -2 53 -23 34 -52 -22 -33 -18 -40 6 -9 11
14 18 30 14 35 -3 5 -1 12 4 15 5 4 12 -2 15 -11 4 -15 4 -14 3 2 -2 24 10 45
26 45 8 0 8 -3 -1 -12 -7 -7 -12 -17 -12 -23 0 -5 4 -4 9 4 8 12 12 12 26 -2
23 -24 32 -21 11 2 -10 11 -15 25 -11 31 4 6 -5 29 -20 51 -14 23 -24 43 -22
46 3 3 13 -7 22 -21 10 -14 21 -23 27 -20 5 3 9 0 7 -7 -3 -26 1 -39 12 -39 8
0 8 5 -1 15 -8 10 -9 15 -2 15 6 0 16 -9 22 -20 6 -11 15 -18 21 -15 14 9 11
-29 -4 -45 -10 -12 -9 -12 6 0 20 15 19 57 -1 53 -6 -2 -12 4 -12 12 0 17 16
20 25 5 3 -5 11 -10 18 -10 6 0 2 7 -9 15 -10 8 -14 15 -7 15 6 0 20 -8 29
-17 17 -17 18 -17 11 1 -6 14 -4 17 9 12 8 -3 19 -6 22 -6 4 0 0 -4 -8 -10 -8
-5 -11 -13 -6 -17 5 -4 11 -2 13 5 3 6 10 9 16 6 8 -5 8 -2 0 7 -7 7 -13 18
-13 24 1 11 40 -33 40 -45 0 -4 -6 -7 -12 -6 -7 0 -14 -3 -15 -9 -1 -5 -12
-12 -25 -15 -13 -3 -24 -11 -24 -18 -1 -7 -2 -17 -3 -23 0 -5 -6 -7 -11 -4 -6
4 -8 11 -5 16 4 5 1 9 -4 9 -14 0 -14 -11 -1 -30 9 -13 12 -12 25 4 8 10 12
22 10 27 -3 4 5 9 17 11 13 2 22 9 20 17 -1 7 3 11 10 8 7 -2 21 2 31 11 21
18 23 0 2 -22 -19 -18 -20 -33 -2 -17 14 11 27 5 27 -11 0 -5 -6 -6 -12 -3 -7
4 -5 0 4 -8 10 -8 14 -18 10 -22 -4 -5 -2 -5 5 -2 12 7 6 44 -8 53 -5 3 -9 9
-9 15 0 5 9 4 19 -3 11 -7 17 -16 14 -21 -9 -15 30 10 67 42 32 28 33 32 18
41 -10 6 -18 16 -18 22 0 7 4 7 14 -1 22 -18 30 18 10 41 -10 10 -15 20 -12
23 2 3 17 -9 32 -26 15 -17 30 -28 34 -25 3 4 -4 13 -16 22 -25 17 -30 36 -8
28 11 -4 14 3 12 28 -1 18 -5 39 -10 47 -7 10 -5 13 5 9 8 -3 23 -2 34 3 19 7
19 8 1 8 -22 1 -13 16 10 16 7 0 14 4 13 9 0 5 10 14 22 20 12 6 24 18 26 26
3 12 1 12 -9 -2 -17 -20 -50 -27 -55 -11 -3 8 3 11 16 8 15 -3 18 0 14 13 -3
9 -2 14 2 9 5 -4 19 0 33 9 23 15 24 15 17 -8 -5 -20 -5 -21 5 -5 9 14 9 22 0
33 -15 17 1 19 19 2 10 -11 14 -10 22 4 5 9 17 14 28 11 10 -3 22 1 26 8 5 8
4 10 -4 5 -17 -11 -48 2 -48 19 0 20 14 19 26 -2 6 -10 11 -13 11 -6 0 6 -4
14 -9 18 -16 9 -8 45 11 51 10 3 16 10 13 15 -6 8 9 13 29 10 5 -1 4 4 -2 12
-10 11 -9 17 5 28 15 12 16 12 10 -5 -6 -16 -5 -17 8 -6 15 12 15 14 1 22 -9
5 -16 14 -16 21 0 7 4 6 10 -3 5 -8 10 -11 10 -6 0 5 6 4 13 -2 10 -8 13 -6
14 9 2 16 -3 19 -20 14 -21 -6 -21 -5 -4 9 11 8 26 12 35 9 15 -4 15 -3 2 6
-11 8 -12 11 -2 11 7 0 10 5 7 10 -3 6 -1 10 6 10 7 0 9 3 5 7 -4 4 -16 -3
-26 -17 -13 -17 -18 -20 -17 -9 2 10 9 24 16 33 12 14 12 16 -2 10 -10 -4 -15
0 -13 10 3 19 16 34 16 18 0 -7 5 -12 11 -12 5 0 7 5 4 10 -3 6 -2 10 2 10 5
0 16 15 24 34 14 31 14 36 0 53 -11 14 -26 19 -48 16 -35 -3 -39 3 -22 27 9
13 10 12 5 -2 -3 -10 -1 -18 4 -18 6 0 10 6 10 13 0 8 3 7 10 -3 8 -13 11 -12
25 5 13 15 15 16 11 3 -6 -20 15 -30 35 -16 11 8 11 9 -2 5 -12 -4 -16 2 -17
26 0 29 1 30 9 9 5 -13 14 -20 19 -17 8 5 7 11 -1 21 -10 12 -10 14 1 12 17
-4 20 39 3 53 -7 6 -10 16 -6 22 3 6 1 7 -5 3 -7 -4 -12 -2 -12 5 0 7 -2 10
-5 8 -7 -7 6 -49 14 -45 4 3 8 -4 8 -15 1 -10 -2 -19 -8 -19 -5 0 -8 3 -7 8 1
4 -4 20 -10 35 -7 16 -12 33 -12 39 0 7 -5 6 -14 -1 -11 -9 -16 -9 -21 0 -6 8
-10 7 -17 -2 -8 -11 -9 -10 -4 3 3 10 -1 24 -9 32 -8 8 -15 22 -15 31 0 12 -5
15 -22 10 -16 -6 -20 -4 -15 8 3 8 1 19 -4 24 -5 5 -11 20 -14 33 -5 25 -15
40 -15 22 0 -6 -7 -9 -15 -6 -8 4 -13 9 -10 13 2 4 -2 8 -10 8 -20 0 -19 -14
3 -26 9 -6 12 -11 6 -11 -5 0 -15 5 -21 11 -15 15 -47 18 -55 5 -6 -8 -8 -8
-8 0 0 6 8 18 17 25 11 9 14 10 9 2 -5 -9 -2 -11 8 -7 21 8 20 11 -5 25 -12 6
-19 7 -15 1 3 -5 -1 -13 -10 -16 -21 -8 -24 -8 -24 5 0 5 5 7 10 4 6 -3 10 -2
10 3 0 14 -232 12 -249 -2 -11 -8 -13 -8 -8 0 5 8 -29 11 -118 11 -70 0 -125
-4 -125 -9 0 -5 5 -6 10 -3 6 3 10 1 10 -4 0 -16 -20 -13 -26 3 -8 20 -81 17
-80 -3z m542 0 c-3 -5 1 -11 9 -15 8 -3 15 -10 15 -16 0 -5 -9 -2 -19 7 -17
14 -20 33 -5 33 3 0 3 -4 0 -9z m-452 -26 c11 -8 17 -17 14 -21 -4 -3 -16 4
-27 15 -24 24 -15 28 13 6z m58 -32 c-3 -16 -7 -22 -10 -15 -4 13 4 42 11 42
2 0 2 -12 -1 -27z m471 2 c-3 -9 -8 -14 -10 -11 -3 3 -2 9 2 15 9 16 15 13 8
-4z m83 -1 c-1 -9 -11 -21 -22 -26 -18 -9 -18 -9 0 6 11 9 16 16 12 16 -4 0
-4 5 -1 10 9 15 14 12 11 -6z m17 -49 c-7 -21 -12 -19 -10 4 0 11 5 18 9 15 4
-3 5 -11 1 -19z m-596 -20 c0 -8 -4 -12 -9 -9 -5 3 -6 10 -3 15 9 13 12 11 12
-6z m58 5 c3 -6 -1 -7 -9 -4 -18 7 -21 14 -7 14 6 0 13 -4 16 -10z m572 -22
c-3 -8 -6 -5 -6 6 -1 11 2 17 5 13 3 -3 4 -12 1 -19z m-655 -6 c3 -11 0 -19
-7 -19 -7 0 -10 8 -7 19 2 10 6 18 7 18 1 0 5 -8 7 -18z m638 14 c0 -2 -7 -7
-16 -10 -8 -3 -12 -2 -9 4 6 10 25 14 25 6z m-236 -92 c3 -8 2 -12 -4 -9 -6 3
-10 10 -10 16 0 14 7 11 14 -7z m330 4 c-3 -4 -9 -8 -15 -8 -5 0 -9 4 -9 8 0
5 7 9 15 9 8 0 12 -4 9 -9z m-8 -63 c0 -14 -4 -25 -8 -25 -6 0 -5 25 1 48 3
10 7 -2 7 -23z m-56 5 c0 -5 -5 -10 -11 -10 -5 0 -7 5 -4 10 3 6 8 10 11 10 2
0 4 -4 4 -10z m-700 -18 c0 -4 -9 -8 -20 -9 -11 -1 -20 2 -20 5 0 4 9 8 20 9
11 1 20 -2 20 -5z m693 -15 c4 3 7 4 7 0 0 -17 -20 -14 -36 6 -19 22 -19 22 2
4 11 -9 24 -14 27 -10z m-673 -27 c0 -5 -2 -10 -4 -10 -3 0 -8 5 -11 10 -3 6
-1 10 4 10 6 0 11 -4 11 -10z m-120 -38 c0 -15 -2 -15 -10 -2 -13 20 -13 33 0
25 6 -3 10 -14 10 -23z m795 10 c0 -7 12 -20 28 -30 15 -10 24 -22 20 -25 -11
-12 -23 -8 -23 8 0 8 -5 15 -11 15 -7 0 -5 -10 5 -25 15 -23 14 -29 -6 -26 -5
0 -8 -3 -8 -8 0 -5 3 -11 8 -14 4 -2 1 -2 -5 -1 -15 4 -15 2 -7 -21 6 -13 9
-14 16 -3 5 8 7 3 4 -16 -3 -16 -13 -37 -22 -47 -9 -10 -13 -22 -10 -27 3 -5
-1 -15 -9 -22 -8 -7 -12 -16 -9 -21 3 -5 -3 -6 -12 -2 -11 4 -15 3 -10 -5 3
-6 -4 -20 -16 -31 -12 -12 -18 -21 -13 -21 4 0 0 -9 -10 -20 -10 -11 -14 -20
-9 -20 5 0 1 -5 -9 -11 -9 -5 -22 -7 -27 -4 -6 4 -10 3 -9 -2 1 -4 0 -11 -1
-15 -1 -5 -3 -14 -4 -20 -1 -7 -10 -12 -20 -10 -12 2 -16 -1 -10 -9 4 -7 3
-10 -4 -5 -6 3 -15 -2 -21 -11 -8 -14 -11 -15 -11 -3 0 12 -3 11 -11 -3 -8
-14 -7 -23 8 -39 14 -16 15 -20 3 -18 -32 5 -42 0 -36 -17 6 -16 6 -16 -12 0
-18 16 -19 16 -16 -5 1 -13 3 -23 4 -23 1 0 3 -14 4 -31 2 -23 -2 -30 -16 -31
-12 -1 -16 3 -12 10 4 7 -1 4 -11 -5 -18 -16 -18 -19 -2 -36 19 -20 22 -32 9
-32 -5 0 -14 10 -20 23 -6 12 -11 16 -11 9 -1 -7 -6 -10 -12 -6 -8 5 -8 9 1
14 9 5 9 13 2 27 -8 15 -8 20 3 20 7 0 11 -7 8 -14 -3 -8 7 -3 22 11 23 21 26
28 15 41 -9 10 -9 15 -1 15 6 0 11 5 11 11 0 5 -5 7 -10 4 -6 -4 -5 4 1 19 11
22 14 24 24 10 10 -14 13 -14 26 3 13 16 13 17 -3 4 -20 -15 -25 -2 -6 17 7 7
10 12 8 13 -3 0 -13 2 -23 4 -10 2 -14 -1 -11 -7 5 -7 2 -8 -6 -3 -9 6 -11 4
-5 -6 5 -8 -2 -5 -16 6 l-24 20 15 -20 c14 -19 14 -19 -5 -5 -19 14 -19 14 -6
-2 7 -10 17 -15 22 -12 5 3 9 0 9 -6 0 -7 -7 -9 -16 -6 -13 5 -14 3 -6 -6 15
-19 15 -30 1 -38 -19 -13 -42 0 -29 15 8 9 8 15 0 20 -5 3 -10 0 -10 -8 0 -7
-7 -14 -15 -14 -9 0 -12 5 -7 12 4 6 -3 0 -15 -14 -17 -19 -20 -29 -12 -45 10
-21 10 -21 -5 -2 -9 11 -16 16 -16 11 0 -5 8 -17 18 -28 10 -12 11 -17 3 -12
-10 6 -12 4 -6 -5 6 -9 4 -11 -6 -5 -10 6 -9 3 2 -11 32 -38 34 -47 8 -33 -32
17 -66 19 -66 3 0 -7 3 -11 7 -9 4 2 7 -2 8 -10 1 -8 3 -22 4 -30 2 -19 3 -19
19 2 10 11 10 14 2 9 -7 -4 -13 -3 -13 3 0 22 19 19 35 -5 12 -18 13 -25 3
-23 -26 3 -39 -1 -33 -11 3 -5 3 -10 -2 -10 -4 0 -19 16 -32 36 -15 21 -30 33
-38 30 -8 -3 -12 -2 -9 3 3 4 -1 17 -9 27 -13 16 -14 17 -9 2 4 -11 1 -18 -6
-18 -6 0 -9 4 -5 9 3 5 0 13 -6 17 -7 4 -9 3 -6 -3 3 -5 0 -10 -8 -10 -8 0
-11 5 -8 11 4 6 -2 4 -13 -4 -13 -10 -12 -5 6 15 l24 30 -29 -29 c-20 -19 -26
-30 -17 -33 6 -3 10 -9 7 -13 -3 -5 -12 -7 -20 -4 -11 5 -12 11 -5 24 8 14 6
18 -7 16 -9 -2 -19 -9 -21 -17 -3 -11 -1 -11 7 1 9 12 10 10 7 -10 -3 -14 -5
-29 -5 -34 -1 -6 -12 5 -25 22 -19 26 -25 29 -30 17 -5 -13 -10 -14 -27 -4
-17 9 -24 8 -38 -7 -15 -17 -15 -17 2 -4 14 10 20 11 30 1 9 -10 9 -11 -4 -6
-23 9 -52 -37 -36 -56 10 -11 9 -11 -4 -1 -19 14 -33 4 -18 -14 6 -7 18 -10
26 -7 12 5 14 3 8 -7 -5 -8 5 -5 24 6 18 11 29 24 26 32 -2 7 -1 11 3 8 5 -3
9 1 9 8 0 8 -6 12 -14 9 -7 -3 -13 0 -13 7 0 6 7 10 16 8 8 -2 15 -6 15 -10
-1 -5 8 -17 19 -28 24 -24 28 -49 5 -30 -8 7 -12 17 -8 23 3 6 1 7 -5 3 -6 -4
-9 -12 -6 -19 7 -19 -33 -52 -48 -40 -7 5 -23 8 -35 7 -12 0 -25 6 -29 15 -10
21 -12 71 -3 65 12 -7 18 23 6 35 -6 6 -12 31 -12 56 -2 42 3 50 29 46 5 -1 6
5 2 14 -3 9 -2 13 4 10 5 -3 7 9 5 29 -3 20 0 38 7 42 7 5 9 2 6 -8 -4 -8 2
-27 12 -43 12 -18 19 -23 22 -13 3 7 -2 18 -9 23 -8 6 -11 18 -7 28 5 15 9 15
22 5 14 -11 15 -10 8 7 -5 15 -4 17 4 9 9 -9 9 -17 1 -33 -15 -27 -1 -27 22
-1 9 11 22 20 28 20 7 0 0 -10 -15 -21 -15 -12 -25 -24 -22 -26 3 -3 17 4 32
16 33 26 39 26 51 -1 5 -12 12 -17 16 -12 7 13 -21 56 -32 50 -4 -3 -8 1 -8 8
0 11 4 12 19 3 10 -7 18 -15 18 -20 0 -4 5 -5 10 -2 6 3 10 1 10 -5 0 -6 5 -8
10 -5 6 4 9 1 8 -6 -2 -6 2 -13 9 -16 26 -10 4 32 -26 48 -41 22 -53 33 -21
19 14 -6 32 -13 41 -16 8 -3 23 -19 33 -35 9 -16 20 -28 24 -28 4 1 15 1 25 0
21 -1 23 -18 2 -18 -8 0 -15 4 -15 9 0 5 -7 3 -15 -5 -8 -9 -24 -13 -37 -10
-23 5 -23 5 -3 -10 13 -10 25 -12 36 -6 9 4 19 5 23 2 3 -3 6 0 6 8 0 8 8 4
20 -11 11 -14 20 -20 20 -13 0 6 -5 15 -10 18 -6 4 -7 12 -3 18 12 20 12 38 0
36 -28 -3 -39 2 -33 16 4 10 -1 14 -16 12 -15 -1 -23 5 -29 26 -4 16 -4 25 2
21 5 -3 9 -14 9 -25 0 -23 15 -25 24 -4 3 8 12 15 21 15 15 0 19 -11 15 -39
-1 -12 1 -12 13 -3 7 6 17 9 20 5 4 -3 7 -1 7 5 0 5 -3 12 -7 15 -5 2 -2 2 5
0 8 -1 12 3 9 9 -2 7 -13 12 -23 10 -18 -2 -18 -2 -1 8 9 6 15 15 12 21 -4 5
-1 9 5 9 7 0 9 -7 6 -15 -8 -21 22 -16 46 8 10 9 24 17 30 17 7 -1 2 -7 -11
-14 l-25 -14 32 -16 c19 -10 33 -12 37 -6 3 6 -1 10 -9 10 -8 0 -17 4 -20 9
-8 12 37 0 45 -12 4 -6 9 -6 12 0 8 13 -22 55 -34 48 -5 -4 -9 -4 -9 -1 0 15
20 13 40 -4 13 -11 26 -20 30 -20 12 0 8 34 -6 55 -8 11 -14 24 -14 30 0 5 10
-5 22 -24 l22 -34 18 23 c11 13 18 17 18 9 0 -8 8 -1 19 14 11 17 17 41 15 60
-3 21 -1 27 5 18 6 -9 11 -10 15 -3 4 6 -3 16 -14 22 -16 9 -20 8 -20 -6 0
-10 -3 -15 -6 -11 -4 3 -4 13 0 22 4 12 10 14 25 5 21 -11 54 -3 45 11 -3 5 1
6 9 3 9 -3 16 3 20 16 3 13 0 23 -9 27 -11 4 -9 9 9 25 20 18 20 19 2 13 -11
-4 -28 -9 -37 -12 -9 -3 -14 -11 -11 -19 3 -8 3 -14 0 -14 -3 0 -7 7 -11 15
-4 10 5 20 27 29 18 8 26 15 20 15 -7 1 -13 6 -13 12 0 8 4 8 15 -1 11 -10 19
-8 39 8 14 11 23 22 19 25 -3 4 2 9 11 13 24 9 20 27 -5 19 -16 -5 -20 -3 -17
12 2 10 -2 17 -9 16 -7 -2 -13 2 -13 7 0 15 16 12 30 -5 7 -8 17 -15 22 -15 6
0 5 7 -2 15 -7 8 -9 15 -4 15 5 0 2 5 -6 11 -13 9 -13 10 0 6 8 -2 15 -9 15
-15z m-681 -22 c-6 -6 -10 -3 -10 10 0 13 4 16 10 10 7 -7 7 -13 0 -20z m768
12 c8 -8 7 -13 -5 -17 -9 -4 -14 -12 -11 -19 3 -7 -2 -19 -11 -26 -9 -8 -15
-8 -15 -2 0 6 5 14 11 17 7 5 5 13 -5 24 -9 10 -13 21 -9 26 5 4 0 5 -10 2
-10 -4 -16 -3 -12 2 7 12 53 7 67 -7z m-838 -7 c-4 -8 -8 -15 -10 -15 -2 0 -4
7 -4 15 0 8 4 15 10 15 5 0 7 -7 4 -15z m-29 -15 c-3 -5 -1 -10 4 -10 6 0 11
-4 11 -8 0 -5 -7 -9 -15 -9 -8 0 -12 4 -9 9 3 4 -1 8 -8 8 -9 0 -9 3 2 10 19
12 23 12 15 0z m145 4 c0 -8 -19 -13 -24 -6 -3 5 1 9 9 9 8 0 15 -2 15 -3z
m571 -15 c6 -13 7 -19 1 -15 -6 3 -12 0 -15 -6 -2 -7 -4 -1 -3 14 1 34 2 34
17 7z m-674 -20 c-16 -22 -16 -22 -14 -1 0 11 5 18 9 16 4 -3 8 0 8 7 0 7 3
10 6 6 3 -3 -1 -16 -9 -28z m77 5 c3 -8 2 -12 -4 -9 -6 3 -10 10 -10 16 0 14
7 11 14 -7z m461 -14 c3 -5 1 -10 -4 -10 -6 0 -11 5 -11 10 0 6 2 10 4 10 3 0
8 -4 11 -10z m155 -15 c-14 -17 -30 -20 -30 -4 0 5 4 8 9 5 5 -3 12 1 15 10 4
9 9 14 13 11 3 -4 0 -13 -7 -22z m-71 2 c8 -10 7 -14 -2 -14 -8 0 -14 6 -14
14 0 7 1 13 2 13 2 0 8 -6 14 -13z m-633 -13 c18 -14 18 -14 -6 -3 -31 14 -36
19 -24 19 6 0 19 -7 30 -16z m88 0 c3 -8 2 -12 -4 -9 -6 3 -10 10 -10 16 0 14
7 11 14 -7z m-114 -14 c0 -5 -4 -10 -10 -10 -5 0 -10 5 -10 10 0 6 5 10 10 10
6 0 10 -4 10 -10z m-25 -20 c3 -5 1 -10 -4 -10 -6 0 -11 5 -11 10 0 6 2 10 4
10 3 0 8 -4 11 -10z m85 0 c0 -5 -4 -10 -10 -10 -5 0 -10 5 -10 10 0 6 5 10
10 10 6 0 10 -4 10 -10z m517 -7 c0 -9 -4 -10 -14 -2 -7 6 -13 12 -13 14 0 1
6 2 13 2 8 0 14 -6 14 -14z m54 -6 c-10 -9 -11 -8 -5 6 3 10 9 15 12 12 3 -3
0 -11 -7 -18z m-610 -10 c-10 -9 -11 -8 -5 6 3 10 9 15 12 12 3 -3 0 -11 -7
-18z m439 3 c0 -5 -2 -10 -4 -10 -3 0 -8 5 -11 10 -3 6 -1 10 4 10 6 0 11 -4
11 -10z m-463 -15 c0 -8 -4 -15 -9 -15 -10 0 -11 14 -1 23 9 10 10 9 10 -8z
m608 -4 c-8 -14 -25 -14 -25 0 0 5 5 7 10 4 6 -3 10 -1 10 6 0 7 3 10 6 6 3
-3 3 -10 -1 -16z m33 -16 c-3 -3 -9 2 -12 12 -6 14 -5 15 5 6 7 -7 10 -15 7
-18z m-609 -9 c9 -11 9 -16 -1 -22 -7 -4 -10 -4 -6 1 4 4 3 14 -3 22 -6 7 -9
13 -6 13 2 0 10 -6 16 -14z m409 2 c-2 -7 3 -12 10 -10 8 1 11 -2 7 -8 -5 -8
-11 -8 -21 1 -7 6 -11 15 -8 20 8 13 14 11 12 -3z m87 2 c3 -6 -1 -7 -9 -4
-18 7 -21 14 -7 14 6 0 13 -4 16 -10z m165 -1 c0 -5 -4 -8 -9 -4 -6 3 -14 -3
-20 -12 -5 -10 -13 -14 -17 -10 -4 4 1 14 12 22 23 17 34 19 34 4z m-95 -28
c-6 -5 -25 10 -25 20 0 5 6 4 14 -3 8 -7 12 -15 11 -17z m-588 -3 c-3 -8 -6
-5 -6 6 -1 11 2 17 5 13 3 -3 4 -12 1 -19z m503 18 c0 -2 -8 -10 -17 -17 -16
-13 -17 -12 -4 4 13 16 21 21 21 13z m50 0 c0 -3 -4 -8 -10 -11 -5 -3 -10 -1
-10 4 0 6 5 11 10 11 6 0 10 -2 10 -4z m-515 -26 c-3 -5 -12 -10 -18 -10 -7 0
-6 4 3 10 19 12 23 12 15 0z m532 -21 c-3 -12 2 -19 17 -23 18 -4 17 -4 -3 -3
-19 2 -25 8 -25 29 -1 14 2 24 7 21 5 -3 7 -14 4 -24z m-113 5 c3 -8 2 -12 -4
-9 -6 3 -10 10 -10 16 0 14 7 11 14 -7z m-479 -4 c-3 -5 -12 -10 -18 -10 -7 0
-6 4 3 10 19 12 23 12 15 0z m175 0 c0 -5 -5 -10 -11 -10 -5 0 -7 5 -4 10 3 6
8 10 11 10 2 0 4 -4 4 -10z m280 -15 c14 -19 14 -19 -2 -6 -10 7 -18 18 -18
24 0 6 1 8 3 6 1 -2 9 -13 17 -24z m120 20 c0 -2 -10 -9 -22 -15 -22 -11 -22
-10 -4 4 21 17 26 19 26 11z m-465 -14 c3 -5 2 -12 -3 -15 -5 -3 -9 1 -9 9 0
17 3 19 12 6z m-79 -30 c0 -12 -5 -17 -15 -13 -10 4 -12 1 -6 -9 5 -8 4 -11 0
-6 -12 10 -16 39 -5 32 5 -3 11 -1 15 5 9 14 11 13 11 -9z m558 -10 c-2 -3
-12 3 -22 13 -16 17 -16 18 5 5 12 -7 20 -15 17 -18z m-48 4 c4 -8 10 -12 15
-9 5 3 12 -2 15 -11 6 -14 8 -14 25 1 11 10 22 15 25 11 9 -8 -6 -28 -16 -22
-5 3 -16 -5 -24 -17 -16 -22 -21 -15 -17 21 2 7 -2 10 -8 6 -6 -3 -14 1 -17 9
-3 9 -10 13 -15 10 -5 -3 -9 0 -9 5 0 16 20 13 26 -4z m-451 -15 c3 -5 1 -10
-4 -10 -6 0 -11 5 -11 10 0 6 2 10 4 10 3 0 8 -4 11 -10z m140 1 c3 -5 2 -12
-3 -15 -5 -3 -9 1 -9 9 0 17 3 19 12 6z m45 3 c0 -8 -19 -13 -24 -6 -3 5 1 9
9 9 8 0 15 -2 15 -3z m75 -24 c1 -10 -2 -17 -6 -14 -4 2 -7 13 -6 24 2 23 10
17 12 -10z m45 20 c0 -5 -2 -10 -4 -10 -3 0 -8 5 -11 10 -3 6 -1 10 4 10 6 0
11 -4 11 -10z m117 -22 c-3 -8 -6 -5 -6 6 -1 11 2 17 5 13 3 -3 4 -12 1 -19z
m-517 2 c0 -5 -2 -10 -4 -10 -3 0 -8 5 -11 10 -3 6 -1 10 4 10 6 0 11 -4 11
-10z m190 6 c0 -2 -8 -10 -17 -17 -16 -13 -17 -12 -4 4 13 16 21 21 21 13z
m125 -5 c3 -5 2 -12 -3 -15 -5 -3 -9 1 -9 9 0 17 3 19 12 6z m182 -13 c2 -17
0 -19 -7 -8 -5 8 -6 18 -4 22 8 12 10 10 11 -14z m-37 -10 c0 -4 -4 -8 -9 -8
-6 0 -12 4 -15 8 -3 5 1 9 9 9 8 0 15 -4 15 -9z m-460 -13 c0 -8 -4 -15 -10
-15 -5 0 -7 7 -4 15 4 8 8 15 10 15 2 0 4 -7 4 -15z m51 -3 c-7 -2 -18 1 -23
6 -8 8 -4 9 13 5 13 -4 18 -8 10 -11z m420 -5 c-10 -9 -11 -8 -5 6 3 10 9 15
12 12 3 -3 0 -11 -7 -18z m-317 -3 c3 -8 2 -12 -4 -9 -6 3 -10 10 -10 16 0 14
7 11 14 -7z m120 8 c3 -5 -1 -9 -9 -9 -8 0 -12 4 -9 9 3 4 7 8 9 8 2 0 6 -4 9
-8z m86 -3 c0 -4 -13 -6 -29 -5 -16 0 -28 3 -26 6 5 8 55 7 55 -1z m48 -1 c15
-15 15 -28 1 -28 -5 0 -8 4 -4 9 3 6 -3 14 -12 20 -10 6 -13 11 -7 11 5 0 15
-5 22 -12z m127 1 c11 -16 1 -19 -13 -3 -7 8 -8 14 -3 14 5 0 13 -5 16 -11z
m-470 -19 c3 -6 -1 -7 -9 -4 -18 7 -21 14 -7 14 6 0 13 -4 16 -10z m186 -7
c13 -16 12 -17 -3 -4 -10 7 -18 15 -18 17 0 8 8 3 21 -13z m449 9 c0 -13 -12
-22 -22 -16 -10 6 -1 24 13 24 5 0 9 -4 9 -8z m-685 -12 c4 -6 11 -8 16 -5 5
4 9 1 9 -4 0 -15 -11 -13 -34 4 -11 8 -15 15 -9 15 7 0 15 -5 18 -10z m81 -10
c0 -12 -4 -16 -9 -11 -5 5 -6 14 -3 20 10 15 12 14 12 -9z m204 -24 c0 -6 -7
-1 -15 10 -8 10 -15 23 -15 28 0 6 7 1 15 -10 8 -10 15 -23 15 -28z m40 14 c0
-6 -9 -2 -20 7 -11 10 -20 19 -20 21 0 1 9 -2 20 -8 11 -6 20 -15 20 -20z
m-183 3 c0 -9 -4 -10 -14 -2 -7 6 -13 12 -13 14 0 1 6 2 13 2 8 0 14 -6 14
-14z m80 0 c-4 -3 1 -12 11 -20 15 -13 15 -13 -6 -3 -19 9 -23 30 -5 30 4 0 3
-3 0 -7z m-161 -15 c4 -6 3 -8 -4 -4 -5 3 -12 0 -15 -6 -2 -7 -8 -9 -13 -5 -5
4 -2 12 6 17 19 12 17 12 26 -2z m64 -3 c0 -1 -6 -8 -14 -14 -11 -9 -16 -9
-22 0 -5 8 -3 9 6 4 10 -6 12 -4 7 8 -4 11 -2 14 9 10 7 -3 14 -6 14 -8z
m-132 -26 c-7 -5 -17 -9 -23 -9 -5 0 -4 4 4 9 8 5 10 14 5 22 -6 11 -4 11 10
0 13 -11 14 -16 4 -22z m-1 -39 c-1 -11 -5 -20 -10 -20 -4 0 -6 -4 -2 -9 3 -5
1 -12 -4 -15 -10 -7 -9 6 3 42 9 27 15 28 13 2z m462 -56 c24 0 43 -23 22 -25
-27 -3 -51 -7 -56 -8 -3 0 -1 -10 5 -20 7 -14 7 -22 0 -26 -8 -5 -7 -11 1 -21
6 -7 15 -12 19 -9 5 3 6 -4 3 -15 -3 -13 1 -26 11 -33 14 -11 12 -15 -19 -40
-28 -22 -39 -26 -54 -18 -19 11 -35 40 -26 49 3 3 5 -1 5 -8 0 -11 3 -11 12
-2 18 18 33 15 18 -3 -10 -13 -11 -18 -1 -28 10 -9 11 -8 5 8 -7 17 -6 18 8 7
14 -11 17 -10 23 8 4 11 11 17 17 14 7 -5 8 -2 3 6 -6 10 -11 10 -20 -3 -12
-17 -27 -23 -23 -9 1 4 -11 22 -28 40 -21 22 -33 29 -40 22 -7 -7 -11 -6 -11
4 0 16 22 15 39 -2 13 -13 38 -16 38 -4 0 4 -7 17 -15 29 -15 22 -5 41 15 28
6 -3 10 -1 10 4 0 6 -7 11 -17 11 -9 0 -13 3 -10 6 3 4 2 15 -3 25 -13 23 19
46 35 26 6 -7 21 -13 34 -13z m-231 -107 c6 -5 17 -5 22 -2 6 4 9 1 8 -7 -2
-8 4 -12 15 -10 9 2 17 -1 17 -6 0 -16 -13 -22 -27 -11 -10 9 -13 8 -13 -1 0
-7 -7 -10 -16 -6 -8 3 -24 1 -35 -5 -15 -7 -24 -7 -35 2 -18 15 -18 33 0 26
15 -6 40 16 30 26 -8 8 18 3 34 -6z m-175 -32 c4 -8 2 -17 -3 -20 -6 -4 -10
-12 -9 -18 0 -9 2 -9 6 1 2 6 10 12 16 12 6 0 4 -8 -6 -17 -16 -16 -18 -16
-31 2 -13 17 -13 21 -1 31 8 6 12 14 8 17 -3 4 -2 7 4 7 6 0 13 -7 16 -15z
m167 -194 c0 -5 -7 -12 -15 -15 -9 -3 -15 -11 -13 -18 1 -7 -6 -23 -17 -35
-18 -21 -20 -21 -37 -6 -14 12 -21 13 -32 4 -8 -7 -12 -19 -9 -28 5 -11 7 -12
14 -2 4 7 5 17 3 21 -3 4 0 8 6 8 17 0 7 -33 -15 -50 -11 -8 -23 -14 -27 -12
-5 1 -8 -3 -8 -9 0 -5 -4 -8 -10 -4 -5 3 -7 12 -3 21 4 12 8 12 21 2 13 -11
14 -11 7 1 -6 10 -4 12 5 6 9 -5 11 -4 6 4 -4 6 -12 9 -17 5 -6 -3 -9 2 -7 12
4 26 33 46 61 42 16 -2 22 2 20 15 0 11 4 16 11 14 7 -3 18 4 24 14 13 20 32
26 32 10z m-206 -34 c-6 -21 -6 -21 8 -3 11 14 17 16 22 7 6 -9 11 -9 21 -1 8
7 18 9 24 6 5 -3 11 -1 13 5 2 7 9 4 18 -7 13 -15 13 -17 1 -13 -13 5 -51 -23
-51 -36 0 -3 -6 -18 -15 -34 -12 -24 -12 -31 -1 -40 7 -6 16 -8 19 -4 4 3 13
1 21 -6 11 -9 15 -8 19 4 4 9 13 12 23 8 12 -4 15 -3 10 5 -7 12 7 21 38 26 8
1 19 5 22 9 12 12 23 8 34 -14 9 -15 8 -24 -1 -35 -9 -11 -9 -14 2 -14 7 0 4
-9 -10 -24 -26 -27 -46 -26 -48 4 -1 12 3 17 13 13 7 -3 11 -9 8 -14 -3 -5 3
-6 12 -2 12 4 14 8 5 11 -9 3 -9 9 3 26 10 16 11 27 4 37 -8 11 -9 10 -4 -3 6
-21 2 -22 -26 -7 -16 8 -19 8 -13 -1 5 -9 1 -10 -16 -6 -13 3 -19 3 -12 0 7
-3 9 -12 6 -20 -3 -7 -10 -11 -16 -7 -6 3 -7 1 -3 -6 4 -6 12 -9 17 -6 5 4 9
1 9 -4 0 -13 -27 -14 -35 -2 -7 12 -45 10 -45 -2 0 -5 -6 -4 -13 2 -8 6 -17 8
-20 4 -4 -3 -7 2 -7 13 0 14 -2 16 -9 5 -6 -9 -11 -10 -15 -2 -4 6 -12 8 -18
5 -5 -4 -5 4 2 16 7 13 14 38 16 56 2 28 0 32 -17 29 -16 -3 -18 -1 -9 16 8
13 7 19 0 19 -6 0 -8 5 -5 10 11 18 26 -1 19 -23z m-14 -82 c7 -8 8 -15 3 -15
-5 0 -9 -9 -10 -21 -1 -14 3 -19 12 -15 8 3 18 0 22 -7 5 -7 17 -13 28 -12 23
0 29 -35 7 -43 -7 -2 -12 0 -11 5 3 19 -2 30 -16 30 -8 0 -12 -4 -9 -9 3 -4 1
-8 -4 -8 -17 0 -22 13 -9 29 10 14 10 14 -4 4 -9 -7 -18 -11 -21 -8 -2 3 -5
-2 -5 -10 0 -8 4 -12 8 -9 4 2 10 0 13 -5 3 -5 -1 -12 -10 -15 -10 -4 -14 -12
-10 -23 4 -10 3 -14 -1 -9 -12 12 -11 100 1 108 7 5 5 8 -4 8 -13 0 -13 1 0
10 13 9 13 11 0 20 -8 5 -10 10 -4 10 6 0 17 -7 24 -15z m210 -40 c0 -8 -4
-15 -10 -15 -5 0 -10 7 -10 15 0 8 5 15 10 15 6 0 10 -7 10 -15z m-74 -40 c4
-11 11 -12 24 -5 14 8 17 5 15 -13 -1 -12 -3 -25 -4 -28 0 -3 -12 -11 -26 -17
-14 -6 -24 -17 -23 -24 2 -7 -3 -12 -10 -10 -7 1 -22 -2 -33 -8 -23 -13 -40
-5 -33 15 4 8 10 12 15 9 5 -3 7 -10 4 -15 -3 -5 1 -6 10 -2 12 4 13 8 5 13
-8 5 -7 9 5 14 23 8 27 8 20 -3 -3 -5 -1 -12 4 -16 6 -3 8 4 6 17 -3 12 1 26
8 30 18 11 29 10 21 -4 -4 -7 -3 -8 5 -4 6 4 9 11 6 16 -3 4 -2 10 2 13 5 2 2
2 -4 1 -20 -5 -43 7 -43 22 0 19 19 18 26 -1z m-33 -48 c-20 -16 -37 -23 -65
-26 -13 -2 -1 -34 17 -47 10 -8 15 -14 11 -14 -4 0 -21 10 -38 21 -23 17 -32
19 -41 10 -9 -9 -7 -11 8 -6 16 6 17 5 5 -4 -12 -9 -13 -11 -1 -11 8 0 11 -3
8 -6 -4 -4 -13 -1 -22 6 -16 14 -16 40 0 52 15 11 27 10 20 -2 -4 -6 5 -5 19
2 14 6 26 15 26 20 0 5 -8 5 -17 0 -19 -10 -43 -6 -43 7 0 10 51 33 58 26 3
-3 -1 -5 -8 -5 -9 0 -7 -5 6 -14 17 -13 20 -12 29 2 5 9 10 20 11 25 1 4 2 9
3 12 0 3 9 -3 19 -12 17 -17 17 -19 -5 -36z m111 2 c-3 -5 -10 -6 -16 -3 -7 4
-8 2 -4 -5 4 -6 12 -9 17 -5 11 7 39 -13 39 -28 0 -6 -6 -5 -15 2 -8 6 -19 9
-24 6 -12 -8 -34 30 -26 44 3 5 12 7 20 4 8 -4 12 -10 9 -15z m-128 -138 c-1
-25 -12 -41 -30 -41 -4 0 -1 10 7 23 11 17 12 28 5 38 -8 11 -9 10 -4 -3 7
-22 4 -22 -39 1 -27 14 -32 20 -20 25 9 3 14 10 11 15 -4 5 11 0 32 -12 30
-16 39 -27 38 -46z m-66 -21 c7 -13 7 -20 1 -20 -6 0 -15 9 -21 20 -7 13 -7
20 -1 20 6 0 15 -9 21 -20z m30 5 c0 -8 -4 -15 -10 -15 -5 0 -10 7 -10 15 0 8
5 15 10 15 6 0 10 -7 10 -15z m18 -55 c23 -31 28 -45 13 -35 -18 11 -23 -16
-7 -40 19 -29 20 -39 4 -29 -9 6 -9 3 0 -9 18 -22 6 -38 -24 -33 -14 3 -24 0
-24 -7 0 -8 -3 -8 -9 1 -4 8 -11 13 -15 13 -3 -1 -5 2 -3 7 3 11 31 9 39 -3 5
-6 8 -5 8 4 0 11 3 11 17 0 15 -13 15 -12 2 9 -8 12 -17 22 -21 22 -5 0 -8 5
-8 11 0 6 7 9 15 5 13 -4 14 -2 5 15 -6 11 -16 17 -22 13 -6 -4 -9 -1 -6 7 3
8 11 14 19 14 18 1 13 26 -9 43 -11 7 -12 8 -4 0 21 -20 13 -32 -8 -13 -20 18
-21 18 -14 0 5 -12 4 -16 -4 -11 -6 3 -14 1 -18 -5 -4 -8 -3 -9 4 -5 7 4 12 3
12 -2 0 -5 -9 -12 -20 -15 -18 -5 -19 -3 -5 24 13 25 39 48 56 49 3 0 15 -13
27 -30z m-38 -35 c-14 -17 -4 -39 13 -28 7 4 6 0 -2 -10 -10 -13 -11 -20 -2
-31 10 -11 9 -14 -1 -12 -7 1 -19 5 -25 9 -7 5 -17 6 -22 3 -5 -4 -8 2 -7 11
2 12 11 18 25 17 20 -1 21 9 0 12 -5 1 -11 2 -14 3 -7 2 29 39 39 40 5 1 3 -6
-4 -14z"/>
<path d="M820 4600 c-12 -7 -10 -9 7 -7 12 0 19 5 17 9 -6 10 -6 10 -24 -2z"/>
<path d="M800 4570 c-13 -9 -13 -11 0 -21 12 -8 10 -9 -8 -4 -21 6 -22 5 -10
-14 7 -12 15 -16 19 -10 4 7 9 4 13 -6 9 -24 7 -32 -3 -16 -6 9 -11 10 -15 2
-4 -6 -1 -11 6 -11 8 0 6 -5 -5 -11 -12 -7 -16 -17 -11 -32 5 -18 4 -20 -7 -9
-11 10 -11 16 -1 32 8 13 9 20 1 20 -6 0 -8 9 -3 22 6 20 5 21 -10 9 -10 -9
-13 -18 -7 -25 13 -16 -4 -53 -28 -61 -12 -3 -21 -12 -21 -20 0 -7 -7 -16 -16
-19 -10 -4 -13 -13 -9 -25 3 -10 -1 -23 -10 -31 -8 -7 -12 -16 -9 -21 3 -5 0
-10 -5 -10 -22 -3 -27 -5 -47 -19 -12 -8 -23 -19 -25 -25 -2 -5 -10 -9 -17 -8
-7 0 -11 -2 -8 -5 3 -3 0 -12 -7 -20 -8 -11 -8 -14 0 -9 6 4 15 2 18 -3 5 -7
12 -5 21 7 7 10 14 14 14 9 0 -5 7 -3 15 4 8 7 12 16 9 21 -8 13 10 11 25 -3
10 -9 12 -9 7 -1 -3 6 -2 14 3 18 6 3 7 13 4 22 -5 12 -2 15 9 10 10 -3 25 4
39 19 12 13 19 24 14 24 -5 0 1 10 13 23 20 21 22 25 22 48 0 5 4 8 9 5 5 -3
14 1 21 9 10 12 10 15 0 15 -6 0 0 14 14 31 24 28 25 32 10 54 -9 13 -13 29
-9 35 8 12 4 13 -15 0z m-39 -149 c-6 -10 -8 -20 -6 -23 3 -3 -3 -13 -14 -22
-14 -13 -21 -14 -27 -5 -4 7 -3 10 3 6 6 -4 17 1 24 10 12 14 11 15 -11 10
-14 -4 -19 -4 -12 -1 6 3 10 10 7 14 -3 5 0 12 6 16 8 4 9 3 5 -4 -4 -7 -3
-12 2 -12 6 0 12 7 16 15 3 8 8 15 11 15 3 0 1 -8 -4 -19z m-47 -92 c-22 -25
-49 -15 -27 11 9 10 22 16 30 13 11 -5 11 -9 -3 -24z m-52 -45 c-1 -5 -10 -9
-20 -9 -9 0 -17 -7 -17 -15 0 -8 -5 -15 -12 -15 -6 0 -15 -3 -19 -7 -4 -5 -11
-8 -15 -8 -4 0 7 15 24 33 29 30 66 43 59 21z"/>
<path d="M696 4333 c-6 -14 -5 -15 5 -6 7 7 10 15 7 18 -3 3 -9 -2 -12 -12z"/>
<path d="M422 4208 c-6 -17 -16 -27 -22 -23 -6 4 -9 -2 -6 -17 2 -13 -1 -28
-6 -35 -14 -17 8 -25 22 -8 7 8 9 15 4 15 -4 0 1 6 11 14 20 14 29 46 14 46
-6 0 -7 5 -3 11 4 8 9 7 15 -2 4 -7 6 -16 3 -20 -2 -4 0 -10 6 -14 5 -3 10 -1
10 4 0 6 5 11 11 11 5 0 8 -4 4 -9 -3 -5 -1 -12 4 -16 6 -3 8 -13 5 -23 -5
-14 -4 -14 4 -2 7 9 7 19 2 26 -6 6 -7 13 -4 17 3 3 -4 10 -15 17 -12 6 -21
16 -21 23 0 8 4 7 10 -3 5 -8 12 -11 16 -7 10 10 -2 19 -29 22 -18 2 -26 -4
-35 -27z m12 -39 c-3 -5 -10 -7 -15 -3 -5 3 -7 10 -3 15 3 5 10 7 15 3 5 -3 7
-10 3 -15z"/>
<path d="M345 4210 c3 -5 11 -10 16 -10 6 0 7 5 4 10 -3 6 -11 10 -16 10 -6 0
-7 -4 -4 -10z"/>
<path d="M90 4180 c0 -5 5 -10 10 -10 6 0 10 5 10 10 0 6 -4 10 -10 10 -5 0
-10 -4 -10 -10z"/>
<path d="M172 4164 c-26 -18 -29 -31 -7 -31 10 0 14 6 10 15 -3 9 6 3 21 -11
37 -37 47 -34 23 8 -12 19 -22 35 -23 35 -1 0 -12 -7 -24 -16z"/>
<path d="M247 4171 c2 -2 -2 -10 -8 -18 -9 -9 -8 -17 0 -27 15 -18 -4 -32 -23
-17 -7 6 -16 8 -19 4 -4 -3 -7 0 -7 8 0 11 -2 11 -10 -1 -5 -8 -10 -19 -10
-25 0 -5 5 -3 10 5 7 12 10 12 10 1 0 -8 6 -11 16 -7 10 4 13 2 8 -6 -4 -6 -3
-8 4 -4 6 3 14 2 17 -4 4 -6 1 -9 -7 -8 -7 2 -12 -2 -11 -8 1 -6 -5 -11 -12
-11 -11 0 -12 4 -4 14 9 9 8 13 0 13 -6 0 -14 -7 -18 -16 -5 -15 -7 -15 -15
-1 -5 9 -15 14 -23 11 -8 -4 -13 -10 -10 -14 3 -5 0 -12 -6 -16 -7 -4 -9 -3
-6 3 3 5 0 10 -8 10 -8 0 -12 -3 -10 -7 2 -3 -6 -6 -18 -7 -12 0 -16 1 -9 4
10 4 8 8 -5 18 -14 11 -15 16 -6 26 6 6 9 19 6 28 -4 11 -1 10 10 -4 9 -11 17
-15 17 -10 0 6 5 3 10 -5 9 -13 10 -13 10 0 0 13 1 13 11 0 8 -12 9 -9 4 10
-5 21 -4 22 5 7 6 -9 8 -23 5 -30 -4 -6 1 -3 9 7 15 19 23 46 9 33 -3 -4 -15
1 -26 10 -18 17 -19 17 -29 -1 -10 -18 -12 -18 -30 5 -11 13 -17 18 -13 12 8
-16 -12 -54 -27 -50 -15 3 -18 -72 -5 -91 8 -10 13 -10 26 1 19 17 51 18 51 3
0 -6 5 -3 11 8 11 18 12 17 33 -6 11 -13 17 -18 12 -11 -12 18 11 43 34 38 12
-2 27 6 39 21 12 15 22 21 26 14 4 -6 2 -17 -5 -25 -9 -11 -7 -13 7 -10 11 2
35 -15 63 -44 24 -25 37 -35 29 -21 -8 14 -15 32 -14 40 0 18 43 21 65 6 9 -7
8 -2 -3 11 -12 14 -15 23 -7 28 5 3 8 11 4 16 -3 5 -9 7 -14 4 -4 -3 -13 2
-20 9 -11 14 -39 14 -59 1 -5 -3 -12 -1 -16 5 -4 6 -10 8 -15 5 -4 -3 -10 2
-14 10 -3 9 3 19 14 25 14 8 20 8 20 0 0 -6 5 -8 10 -5 17 11 0 26 -22 19 -11
-3 -24 0 -31 8 -7 7 -11 11 -10 9z m-124 -46 c-3 -9 -8 -14 -10 -11 -3 3 -2 9
2 15 9 16 15 13 8 -4z m-63 -30 c-6 -8 -8 -20 -4 -27 14 -21 13 -36 -2 -49 -8
-6 -15 -9 -15 -5 -5 23 -4 32 4 44 6 7 6 12 0 12 -5 0 -10 7 -10 15 0 8 4 12
8 9 4 -2 10 0 14 6 3 5 9 10 12 10 3 0 0 -7 -7 -15z m220 0 c0 4 6 2 13 -4 8
-6 16 -8 19 -6 13 13 48 12 58 -1 7 -7 17 -11 24 -7 7 4 6 1 -1 -9 -7 -8 -10
-17 -7 -21 3 -3 -2 -4 -13 -3 -22 4 -45 -12 -37 -28 3 -6 -13 9 -36 34 -22 25
-45 44 -51 42 -6 -1 -8 2 -4 8 5 8 11 7 21 -1 8 -6 14 -8 14 -4z m-116 -57
c-9 -14 -23 2 -17 18 4 12 8 13 14 3 4 -7 5 -17 3 -21z"/>
<path d="M49 4058 c-5 -18 -6 -38 -1 -34 7 8 12 36 6 36 -2 0 -4 -1 -5 -2z"/>
<path d="M299 4062 c21 -30 25 -32 40 -18 15 13 21 16 37 16 4 0 1 6 -5 14
-11 13 -46 14 -59 1 -3 -2 -12 1 -21 8 -8 6 -5 -3 8 -21z m63 7 c2 -2 1 -3 -1
-1 -2 1 -13 -6 -24 -15 -11 -10 -17 -12 -13 -5 4 7 2 12 -6 12 -10 0 -10 2 1
9 14 9 38 9 43 0z"/>
<path d="M74 4089 c-8 -13 12 -28 34 -25 9 2 18 9 20 17 3 8 1 11 -3 7 -4 -4
-16 -3 -26 2 -12 7 -20 6 -25 -1z"/>
<path d="M166 4078 c3 -5 10 -6 15 -3 13 9 11 12 -6 12 -8 0 -12 -4 -9 -9z"/>
<path d="M31 3967 c-13 -21 -12 -21 5 -5 10 10 16 20 13 22 -3 3 -11 -5 -18
-17z"/>
<path d="M105 3909 c-11 -16 -1 -19 13 -3 7 8 8 14 3 14 -5 0 -13 -5 -16 -11z"/>
<path d="M890 4661 c0 -7 -5 -9 -12 -5 -7 5 -8 3 -3 -5 5 -9 10 -10 18 -2 6 6
8 14 4 18 -4 3 -7 1 -7 -6z"/>
<path d="M440 4120 c-11 -7 -11 -10 -2 -10 7 0 11 -4 7 -9 -3 -5 -1 -12 4 -15
5 -4 12 -2 15 3 4 5 2 12 -4 16 -6 4 -8 11 -5 16 8 11 4 11 -15 -1z"/>
<path d="M435 4040 c3 -5 8 -10 11 -10 2 0 4 5 4 10 0 6 -5 10 -11 10 -5 0 -7
-4 -4 -10z"/>
<path d="M441 3981 c-9 -6 -7 -10 8 -14 21 -5 39 9 27 20 -3 4 -6 0 -6 -8 0
-10 -2 -11 -8 -2 -4 7 -13 9 -21 4z"/>
<path d="M243 3997 c-25 -31 -26 -39 -5 -28 12 6 23 15 27 20 9 15 -12 22 -22
8z"/>
<path d="M77 3740 c9 -10 10 -17 1 -27 -7 -9 0 -7 20 4 17 10 28 21 25 26 -3
5 -9 3 -13 -4 -7 -10 -12 -10 -27 1 -15 12 -16 12 -6 0z"/>
<path d="M80 3690 c-8 -5 -11 -10 -7 -10 4 0 3 -9 -3 -19 -7 -15 -7 -22 2 -27
7 -4 10 -4 6 1 -4 4 -1 20 8 36 16 32 16 33 -6 19z"/>
<path d="M130 3550 c-8 -5 -12 -12 -9 -15 4 -3 12 1 19 10 14 17 11 19 -10 5z"/>
<path d="M50 3539 c0 -5 5 -7 10 -4 6 3 10 8 10 11 0 2 -4 4 -10 4 -5 0 -10
-5 -10 -11z"/>
<path d="M67 3429 c7 -7 15 -10 18 -7 3 3 -2 9 -12 12 -14 6 -15 5 -6 -5z"/>
<path d="M67 5004 c-4 -4 -3 -12 0 -18 14 -21 10 -44 -5 -38 -11 4 -14 1 -9
-11 3 -9 2 -19 -4 -23 -5 -3 -7 -15 -3 -26 5 -17 3 -20 -10 -15 -10 4 -15 3
-11 -3 3 -5 0 -7 -7 -5 -11 4 -14 -10 -14 -65 1 -38 4 -70 7 -70 11 0 29 27
23 33 -4 3 -3 14 1 24 5 10 9 30 9 45 1 33 60 102 81 94 8 -3 15 -1 15 4 0 10
-39 25 -55 22 -5 -1 -2 4 7 11 17 13 17 15 0 31 -10 9 -22 13 -25 10z m41 -68
c-2 0 -16 -12 -33 -26 -16 -14 -24 -17 -16 -8 7 9 10 22 6 27 -3 7 0 8 9 5 9
-3 16 -1 16 6 0 6 5 8 11 5 6 -4 9 -8 7 -9z m-71 -100 c0 -8 -6 -12 -12 -10
-6 3 -12 11 -12 18 0 8 6 12 12 10 6 -3 12 -11 12 -18z m-9 -46 c-7 -10 -14
-17 -17 -15 -4 4 18 35 25 35 2 0 -1 -9 -8 -20z"/>
<path d="M30 4943 c0 -7 -6 -10 -14 -7 -10 4 -13 -3 -13 -23 1 -20 7 -29 19
-29 9 0 14 4 11 9 -2 4 0 13 6 20 6 8 6 18 1 27 -6 10 -10 11 -10 3z m10 -18
c0 -2 -6 -8 -13 -14 -10 -8 -14 -7 -14 2 0 8 6 14 14 14 7 0 13 -1 13 -2z"/>
<path d="M859 4883 c27 -39 31 -41 29 -9 -1 14 -6 22 -11 19 -4 -2 -15 1 -25
9 -10 8 -8 1 7 -19z"/>
<path d="M0 4589 c0 -5 5 -7 10 -4 5 3 10 8 10 11 0 2 -4 4 -10 4 -5 0 -10 -5
-10 -11z"/>
<path d="M770 4336 c0 -8 4 -17 8 -20 4 -2 8 4 8 15 0 10 -4 19 -8 19 -4 0 -8
-6 -8 -14z"/>
<path d="M748 4248 c-12 -9 -13 -19 -7 -33 l9 -20 -3 20 c-1 11 4 25 13 32 8
7 12 13 9 13 -3 0 -12 -6 -21 -12z"/>
<path d="M710 4231 c0 -6 4 -13 10 -16 6 -3 7 1 4 9 -7 18 -14 21 -14 7z"/>
<path d="M773 4225 c0 -8 4 -12 9 -9 5 3 6 10 3 15 -9 13 -12 11 -12 -6z"/>
<path d="M694 4195 c-4 -8 -10 -12 -15 -9 -5 3 -9 3 -9 0 0 -3 9 -10 19 -15
16 -9 18 -8 14 9 -4 16 -2 19 11 14 9 -3 16 -4 16 -1 0 13 -31 15 -36 2z"/>
<path d="M750 4166 c0 -2 7 -7 16 -10 8 -3 12 -2 9 4 -6 10 -25 14 -25 6z"/>
<path d="M734 4141 c0 -13 6 -17 19 -13 10 2 16 5 15 6 -2 1 -10 7 -18 13 -13
10 -16 8 -16 -6z"/>
<path d="M619 4125 c-1 -3 -2 -10 -3 -17 0 -6 -7 -13 -15 -16 -8 -3 -11 0 -7
7 4 6 3 11 -2 11 -5 0 -9 -13 -9 -30 l0 -29 23 26 c13 15 21 30 18 34 -2 4 4
10 13 12 17 4 17 5 1 6 -10 0 -19 -1 -19 -4z"/>
<path d="M660 4126 c0 -2 7 -6 15 -10 8 -3 15 -1 15 4 0 6 -7 10 -15 10 -8 0
-15 -2 -15 -4z"/>
<path d="M773 4112 c-8 -14 -8 -19 1 -19 7 0 13 9 13 19 1 10 1 18 0 18 -1 0
-7 -8 -14 -18z"/>
<path d="M642 4095 c-7 -8 -9 -15 -4 -15 5 0 15 7 22 15 16 19 -1 19 -18 0z"/>
<path d="M720 4096 c0 -9 -4 -15 -9 -11 -14 8 -35 -35 -23 -47 6 -6 12 -5 17
3 6 8 4 10 -5 4 -10 -6 -12 -4 -7 9 4 10 7 20 7 22 0 3 5 2 10 -1 11 -7 26 22
16 32 -3 4 -6 -1 -6 -11z"/>
<path d="M675 4089 c-4 -6 -5 -12 -2 -15 2 -3 7 2 10 11 7 17 1 20 -8 4z"/>
<path d="M775 4070 c-4 -6 -10 -8 -14 -6 -4 3 -8 -1 -8 -9 0 -10 4 -12 12 -5
7 5 14 8 17 5 2 -3 5 2 5 10 0 18 -3 19 -12 5z"/>
<path d="M620 4061 c0 -5 9 -7 20 -4 11 3 20 7 20 9 0 2 -9 4 -20 4 -11 0 -20
-4 -20 -9z"/>
<path d="M585 4039 c-19 -19 -19 -20 -1 -13 14 5 17 4 12 -4 -4 -7 -3 -12 2
-12 5 0 10 11 10 25 0 14 -1 25 -2 24 0 0 -10 -9 -21 -20z"/>
<path d="M635 4040 c-19 -8 -19 -9 2 -9 12 -1 25 4 28 9 7 12 -2 12 -30 0z"/>
<path d="M670 4021 c0 -10 19 -25 25 -20 1 2 -3 10 -11 17 -8 7 -14 8 -14 3z"/>
<path d="M620 4005 c-7 -9 -8 -15 -2 -15 5 0 12 7 16 15 3 8 4 15 2 15 -2 0
-9 -7 -16 -15z"/>
<path d="M759 3993 c-13 -16 -12 -17 4 -4 9 7 17 15 17 17 0 8 -8 3 -21 -13z"/>
<path d="M627 3980 c-15 -14 -16 -20 -5 -26 7 -4 10 -4 6 1 -4 4 0 14 10 21 9
7 15 14 12 17 -3 2 -13 -4 -23 -13z"/>
<path d="M555 3980 c3 -6 1 -10 -6 -10 -7 0 -10 -3 -6 -6 3 -3 13 -2 22 4 16
8 16 9 1 15 -10 4 -15 3 -11 -3z"/>
<path d="M676 3974 c-8 -20 -8 -24 2 -24 4 0 8 9 9 20 2 24 -3 26 -11 4z"/>
<path d="M790 3978 c0 -4 4 -8 9 -8 6 0 12 4 15 8 3 5 -1 9 -9 9 -8 0 -15 -4
-15 -9z"/>
<path d="M590 3963 c0 -6 8 -17 18 -24 16 -13 16 -13 2 6 -8 11 -16 22 -17 24
-2 2 -3 0 -3 -6z"/>
<path d="M747 3949 c3 -10 13 -24 22 -31 14 -12 15 -11 2 4 -7 10 -11 24 -8
31 3 8 -1 14 -8 14 -7 0 -10 -8 -8 -18z"/>
<path d="M775 3951 c-3 -5 -2 -12 3 -15 5 -3 9 1 9 9 0 17 -3 19 -12 6z"/>
<path d="M547 3937 c3 -4 7 -6 11 -3 3 3 10 -2 17 -11 9 -13 14 -13 20 -3 5 9
4 11 -3 6 -7 -4 -12 -1 -12 8 0 8 -8 14 -19 13 -11 0 -17 -5 -14 -10z"/>
<path d="M731 3934 c0 -11 3 -14 6 -6 3 7 2 16 -1 19 -3 4 -6 -2 -5 -13z"/>
<path d="M841 3936 c-9 -11 -9 -16 0 -22 8 -5 9 -3 4 6 -6 10 -4 12 8 7 11 -4
14 -2 10 9 -6 17 -8 17 -22 0z"/>
<path d="M627 3927 c-3 -8 3 -13 17 -14 11 0 15 1 8 4 -6 3 -10 9 -6 14 3 5 1
9 -4 9 -6 0 -12 -6 -15 -13z"/>
<path d="M502 3902 c-33 -28 -40 -42 -21 -42 5 0 8 4 5 8 -3 5 8 19 24 31 30
21 30 21 30 1 0 -11 -5 -19 -12 -17 -6 1 -13 -7 -15 -18 -3 -18 -2 -18 5 -2 4
10 12 17 17 16 13 -3 19 31 8 41 -4 5 -23 -3 -41 -18z"/>
<path d="M879 3923 c-5 -29 -5 -53 -1 -48 7 6 12 55 6 55 -2 0 -5 -3 -5 -7z"/>
<path d="M270 3916 c0 -2 9 -6 20 -9 11 -3 18 -1 14 4 -5 9 -34 13 -34 5z"/>
<path d="M190 3900 c0 -5 7 -7 15 -4 11 5 14 2 9 -12 -6 -15 -4 -16 6 -7 7 6
9 16 6 22 -9 14 -36 15 -36 1z"/>
<path d="M566 3897 c3 -10 9 -15 12 -12 3 3 0 11 -7 18 -10 9 -11 8 -5 -6z"/>
<path d="M595 3900 c-3 -5 -1 -10 4 -10 6 0 11 5 11 10 0 6 -2 10 -4 10 -3 0
-8 -4 -11 -10z"/>
<path d="M713 3892 c2 -12 6 -24 10 -28 3 -4 4 4 2 16 -6 30 -16 40 -12 12z"/>
<path d="M633 3871 c10 -12 9 -14 -5 -9 -17 7 -20 -14 -3 -29 4 -4 5 -2 1 5
-7 11 6 17 28 13 5 -1 4 4 -3 12 -9 12 -9 16 1 20 7 3 3 4 -9 4 -18 -1 -20 -4
-10 -16z"/>
<path d="M788 3872 c4 -11 1 -13 -8 -7 -8 5 -11 4 -6 -3 4 -6 12 -9 20 -6 16
6 17 31 0 31 -7 0 -10 -7 -6 -15z"/>
<path d="M828 3883 c7 -3 16 -2 19 1 4 3 -2 6 -13 5 -11 0 -14 -3 -6 -6z"/>
<path d="M350 3869 c0 -5 -4 -7 -10 -4 -6 3 -7 -1 -4 -10 5 -11 2 -14 -12 -9
-16 5 -16 4 -4 -5 11 -8 18 -7 26 4 6 8 14 12 18 8 4 -4 4 0 0 10 -7 19 -14
22 -14 6z"/>
<path d="M40 3862 c0 -4 9 -8 20 -9 11 -1 20 2 20 5 0 4 -9 8 -20 9 -11 1 -20
-2 -20 -5z"/>
<path d="M675 3850 c2 -11 -3 -24 -13 -30 -9 -5 -12 -10 -5 -10 21 0 40 45 23
55 -5 3 -7 -4 -5 -15z"/>
<path d="M885 3860 c-3 -5 -1 -10 4 -10 6 0 11 5 11 10 0 6 -2 10 -4 10 -3 0
-8 -4 -11 -10z"/>
<path d="M142 3848 c-7 -7 -12 -17 -12 -22 0 -6 6 -4 13 5 7 9 19 18 27 22 13
5 13 6 0 6 -9 1 -21 -4 -28 -11z"/>
<path d="M376 3842 c-3 -5 -4 -17 -2 -28 3 -21 28 -26 32 -6 1 7 0 8 -3 2 -8
-17 -19 -11 -20 10 -1 13 2 18 9 14 7 -4 8 -2 4 4 -8 14 -13 15 -20 4z"/>
<path d="M550 3841 c0 -17 21 -24 33 -12 9 9 7 10 -7 5 -13 -5 -17 -4 -12 4 4
7 2 12 -3 12 -6 0 -11 -4 -11 -9z"/>
<path d="M830 3840 c0 -5 5 -10 10 -10 6 0 10 5 10 10 0 6 -4 10 -10 10 -5 0
-10 -4 -10 -10z"/>
<path d="M436 3832 c-2 -4 -1 -14 4 -22 7 -11 9 -9 7 8 -1 24 -3 26 -11 14z"/>
<path d="M522 3820 c-7 -11 -8 -20 -3 -20 9 0 24 30 18 36 -1 2 -8 -6 -15 -16z"/>
<path d="M884 3826 c-10 -8 -17 -16 -14 -19 3 -2 14 4 24 14 23 22 18 25 -10
5z"/>
<path d="M220 3826 c0 -2 9 -6 20 -9 11 -3 20 -1 20 4 0 5 -9 9 -20 9 -11 0
-20 -2 -20 -4z"/>
<path d="M312 3816 c7 -8 15 -12 17 -11 5 6 -10 25 -20 25 -5 0 -4 -6 3 -14z"/>
<path d="M351 3814 c0 -11 3 -14 6 -6 3 7 2 16 -1 19 -3 4 -6 -2 -5 -13z"/>
<path d="M468 3823 c6 -2 18 -2 25 0 6 3 1 5 -13 5 -14 0 -19 -2 -12 -5z"/>
<path d="M693 3817 c-4 -6 -1 -7 7 -2 10 6 12 4 7 -8 -4 -10 -2 -14 7 -11 7 3
13 11 13 18 0 15 -25 17 -34 3z"/>
<path d="M767 3819 c7 -7 15 -10 18 -7 3 3 -2 9 -12 12 -14 6 -15 5 -6 -5z"/>
<path d="M286 3794 c-5 -14 -4 -15 9 -4 17 14 19 20 6 20 -5 0 -12 -7 -15 -16z"/>
<path d="M790 3800 c-9 -6 -10 -10 -3 -10 6 0 15 5 18 10 8 12 4 12 -15 0z"/>
<path d="M595 3790 c-4 -6 -11 -8 -16 -5 -5 4 -9 1 -9 -4 0 -15 11 -13 34 4
11 8 15 15 9 15 -7 0 -15 -5 -18 -10z"/>
<path d="M668 3792 c8 -5 13 -13 12 -18 -1 -5 4 -10 12 -12 11 -3 11 -2 0 6
-8 5 -13 13 -12 18 1 5 -4 10 -12 12 -11 3 -11 2 0 -6z"/>
<path d="M755 3790 c-4 -6 -10 -8 -15 -5 -4 3 -14 -3 -21 -13 -12 -15 -12 -16
2 -5 9 7 18 11 21 8 3 -3 11 1 18 10 7 8 10 15 7 15 -3 0 -9 -5 -12 -10z"/>
<path d="M293 3773 c-13 -8 -23 -23 -22 -32 0 -13 2 -13 6 -1 4 8 16 22 27 32
26 22 19 22 -11 1z"/>
<path d="M331 3785 c4 -3 19 -8 35 -11 16 -3 26 -2 23 1 -4 3 -19 8 -35 11
-16 3 -26 2 -23 -1z"/>
<path d="M410 3780 c0 -5 5 -10 10 -10 6 0 10 5 10 10 0 6 -4 10 -10 10 -5 0
-10 -4 -10 -10z"/>
<path d="M450 3780 c0 -5 5 -10 10 -10 6 0 10 5 10 10 0 6 -4 10 -10 10 -5 0
-10 -4 -10 -10z"/>
<path d="M485 3780 c-3 -6 1 -7 9 -4 18 7 21 14 7 14 -6 0 -13 -4 -16 -10z"/>
<path d="M510 3769 c-22 -18 -22 -19 -3 -10 12 6 25 16 28 21 9 15 3 12 -25
-11z"/>
<path d="M850 3786 c0 -2 7 -7 16 -10 8 -3 12 -2 9 4 -6 10 -25 14 -25 6z"/>
<path d="M797 3769 c7 -7 15 -10 18 -7 3 3 -2 9 -12 12 -14 6 -15 5 -6 -5z"/>
<path d="M315 3760 c-8 -13 3 -30 18 -29 9 0 9 2 0 6 -7 2 -13 9 -13 14 0 4 7
5 17 2 11 -4 14 -3 9 5 -9 15 -23 15 -31 2z"/>
<path d="M534 3758 c-4 -6 -3 -8 3 -5 6 4 13 0 17 -8 3 -8 11 -15 18 -14 10 0
10 2 0 6 -6 2 -10 8 -7 13 3 4 -2 10 -10 14 -8 3 -17 0 -21 -6z"/>
<path d="M833 3753 c0 -9 4 -10 14 -2 7 6 13 12 13 14 0 1 -6 2 -13 2 -8 0
-14 -6 -14 -14z"/>
<path d="M359 3748 c-1 -7 -3 -25 -4 -40 -4 -26 -3 -26 16 -7 23 23 26 37 3
18 -13 -11 -14 -9 -9 14 4 15 4 27 1 27 -3 0 -7 -6 -7 -12z"/>
<path d="M390 3750 c0 -5 5 -10 10 -10 6 0 10 5 10 10 0 6 -4 10 -10 10 -5 0
-10 -4 -10 -10z"/>
<path d="M433 3738 c1 -16 5 -28 9 -28 10 0 9 9 -2 35 -8 17 -8 16 -7 -7z"/>
<path d="M600 3754 c0 -6 7 -19 16 -30 14 -18 14 -18 3 6 -14 31 -19 36 -19
24z"/>
<path d="M637 3747 c-3 -8 1 -14 8 -14 7 0 11 6 8 14 -3 7 -6 13 -8 13 -2 0
-5 -6 -8 -13z"/>
<path d="M750 3745 c0 -8 2 -15 4 -15 2 0 6 7 10 15 3 8 1 15 -4 15 -6 0 -10
-7 -10 -15z"/>
<path d="M290 3739 c0 -9 7 -22 15 -29 8 -7 15 -9 15 -4 0 5 5 2 11 -6 7 -10
9 -11 7 -2 -2 8 -7 12 -12 10 -4 -2 -14 8 -21 22 -10 17 -14 20 -15 9z"/>
<path d="M505 3739 c-4 -6 -4 -13 -1 -16 3 -4 6 -1 6 6 0 7 5 9 12 5 7 -4 8
-3 4 4 -9 15 -13 15 -21 1z"/>
<path d="M676 3735 c-9 -26 -7 -32 5 -12 6 10 9 21 6 23 -2 3 -7 -2 -11 -11z"/>
<path d="M796 3742 c-3 -5 1 -9 9 -9 8 0 12 4 9 9 -3 4 -7 8 -9 8 -2 0 -6 -4
-9 -8z"/>
<path d="M472 3714 c-7 -8 -8 -14 -3 -14 10 0 25 19 20 25 -2 1 -10 -3 -17
-11z"/>
<path d="M590 3721 c0 -10 29 -36 34 -30 1 2 -6 12 -16 22 -10 9 -18 13 -18 8z"/>
<path d="M506 3705 c-11 -8 -15 -15 -9 -15 6 0 16 7 23 15 16 19 11 19 -14 0z"/>
<path d="M697 3705 c3 -8 9 -12 14 -9 12 7 11 11 -5 17 -10 4 -13 1 -9 -8z"/>
<path d="M735 3709 c-4 -6 -5 -12 -2 -15 2 -3 7 2 10 11 7 17 1 20 -8 4z"/>
<path d="M386 3695 c-11 -8 -18 -17 -15 -19 2 -3 15 4 29 14 14 11 21 20 15
19 -5 0 -19 -6 -29 -14z"/>
<path d="M545 3700 c3 -5 8 -10 11 -10 2 0 4 5 4 10 0 6 -5 10 -11 10 -5 0 -7
-4 -4 -10z"/>
<path d="M440 3691 c0 -7 -5 -9 -10 -6 -6 3 -13 -1 -16 -9 -3 -9 -9 -14 -13
-12 -4 3 -8 -5 -8 -17 -1 -13 1 -17 5 -10 5 7 13 9 21 3 8 -4 21 -6 29 -2 11
4 13 1 7 -8 -5 -9 -4 -11 4 -6 13 9 5 27 -12 25 -27 -3 -36 2 -31 16 4 8 10
13 14 10 10 -6 24 14 16 22 -3 4 -6 1 -6 -6z"/>
<path d="M632 3684 c-11 -12 -9 -13 7 -11 11 2 24 7 28 12 5 4 3 5 -4 2 -6 -4
-13 -3 -15 2 -1 5 -9 3 -16 -5z"/>
<path d="M307 3672 c1 -8 3 -16 3 -18 0 -2 5 -4 11 -4 5 0 7 5 3 12 -5 8 -2 9
10 5 11 -4 15 -3 11 4 -4 6 -13 8 -20 5 -8 -3 -16 -2 -18 2 -2 4 -2 1 0 -6z"/>
<path d="M515 3680 c-3 -5 -1 -10 4 -10 6 0 11 5 11 10 0 6 -2 10 -4 10 -3 0
-8 -4 -11 -10z"/>
<path d="M593 3660 c0 -23 3 -28 9 -16 5 9 5 23 0 32 -6 12 -9 7 -9 -16z"/>
<path d="M540 3671 c0 -6 4 -13 10 -16 6 -3 7 1 4 9 -7 18 -14 21 -14 7z"/>
<path d="M733 3665 c0 -8 3 -13 5 -10 3 3 12 -1 21 -7 10 -8 9 -4 -3 10 -23
26 -23 26 -23 7z"/>
<path d="M460 3660 c35 -24 54 -31 30 -11 -14 11 -29 21 -35 21 -5 0 -3 -5 5
-10z"/>
<path d="M350 3650 c-8 -5 -10 -10 -5 -10 6 0 17 5 25 10 8 5 11 10 5 10 -5 0
-17 -5 -25 -10z"/>
<path d="M536 3637 c3 -10 9 -15 12 -12 3 3 0 11 -7 18 -10 9 -11 8 -5 -6z"/>
<path d="M628 3643 c6 -2 18 -2 25 0 6 3 1 5 -13 5 -14 0 -19 -2 -12 -5z"/>
<path d="M566 3625 c-3 -8 -1 -15 4 -15 6 0 10 7 10 15 0 8 -2 15 -4 15 -2 0
-6 -7 -10 -15z"/>
<path d="M734 3620 c0 -13 4 -16 10 -10 7 7 7 13 0 20 -6 6 -10 3 -10 -10z"/>
<path d="M336 3614 c-4 -9 -4 -19 -1 -22 2 -3 7 3 11 12 4 9 4 19 1 22 -2 3
-7 -3 -11 -12z"/>
<path d="M370 3620 c8 -5 20 -10 25 -10 6 0 3 5 -5 10 -8 5 -19 10 -25 10 -5
0 -3 -5 5 -10z"/>
<path d="M414 3613 c3 -19 36 -32 36 -14 0 6 -7 7 -17 4 -10 -4 -14 -2 -9 5 3
6 2 13 -3 16 -5 4 -8 -2 -7 -11z"/>
<path d="M476 3622 c-2 -4 -1 -14 4 -22 7 -11 9 -9 7 8 -1 24 -3 26 -11 14z"/>
<path d="M521 3614 c0 -11 3 -14 6 -6 3 7 2 16 -1 19 -3 4 -6 -2 -5 -13z"/>
<path d="M600 3615 c-7 -8 -9 -15 -5 -15 4 0 1 -8 -6 -17 -13 -16 -12 -17 4
-4 9 8 15 16 12 19 -3 3 0 11 6 19 6 7 9 13 6 13 -2 0 -10 -7 -17 -15z"/>
<path d="M667 3619 c7 -7 15 -10 18 -7 3 3 -2 9 -12 12 -14 6 -15 5 -6 -5z"/>
<path d="M462 3580 c0 -14 2 -19 5 -12 2 6 2 18 0 25 -3 6 -5 1 -5 -13z"/>
<path d="M703 3584 c9 -11 14 -23 11 -26 -3 -3 -1 -8 4 -12 18 -11 8 25 -12
41 -21 18 -21 18 -3 -3z"/>
<path d="M530 3580 c0 -5 5 -10 10 -10 6 0 10 5 10 10 0 6 -4 10 -10 10 -5 0
-10 -4 -10 -10z"/>
<path d="M615 3581 c-4 -7 1 -8 12 -4 15 6 16 4 6 -8 -10 -13 -10 -16 1 -16
16 0 15 29 -1 34 -6 2 -14 -1 -18 -6z"/>
<path d="M674 3571 c4 -5 0 -11 -6 -14 -7 -3 -3 -4 9 -4 17 1 19 4 11 14 -12
15 -22 18 -14 4z"/>
<path d="M417 3563 c-2 -5 -3 -15 -2 -23 0 -8 -4 -19 -10 -23 -6 -5 -4 -7 5
-4 8 2 14 14 14 26 -1 15 3 20 12 17 8 -3 14 -1 14 4 0 12 -27 13 -33 3z"/>
<path d="M815 3560 c-3 -5 -1 -10 4 -10 6 0 11 5 11 10 0 6 -2 10 -4 10 -3 0
-8 -4 -11 -10z"/>
<path d="M294 3549 c-8 -14 18 -31 30 -19 9 9 0 30 -14 30 -5 0 -12 -5 -16
-11z m26 -9 c0 -5 -2 -10 -4 -10 -3 0 -8 5 -11 10 -3 6 -1 10 4 10 6 0 11 -4
11 -10z"/>
<path d="M553 3541 c0 -11 5 -17 9 -15 5 3 6 9 3 14 -3 4 1 11 7 13 8 4 7 6
-4 6 -11 1 -16 -6 -15 -18z"/>
<path d="M457 3531 c-4 -17 -3 -21 5 -13 5 5 8 16 6 23 -3 8 -7 3 -11 -10z"/>
<path d="M495 3539 c-4 -6 -4 -13 -1 -16 3 -4 6 -1 6 6 0 7 5 9 10 6 6 -3 10
-1 10 4 0 14 -17 14 -25 0z"/>
<path d="M329 3514 c-8 -10 -9 -15 -2 -11 7 4 18 -2 27 -15 9 -12 16 -18 16
-14 0 5 -7 18 -17 28 -15 17 -15 18 5 18 12 0 21 -5 20 -12 -2 -6 6 -13 17
-15 18 -3 18 -2 2 5 -10 4 -17 12 -15 17 6 18 -38 16 -53 -1z"/>
<path d="M599 3528 c-6 -21 -6 -39 1 -43 5 -3 7 3 6 12 -2 10 2 21 8 25 8 5 7
8 -1 8 -7 0 -13 -1 -14 -2z"/>
<path d="M636 3518 c3 -5 10 -6 15 -3 13 9 11 12 -6 12 -8 0 -12 -4 -9 -9z"/>
<path d="M674 3514 c1 -8 4 -15 7 -16 2 -2 3 -1 2 1 -2 2 2 9 7 16 7 8 5 12
-4 12 -8 0 -13 -6 -12 -13z"/>
<path d="M513 3492 c-1 -22 0 -24 9 -8 6 10 6 22 2 26 -5 5 -10 -3 -11 -18z"/>
<path d="M460 3488 c-11 -22 -11 -22 5 -3 14 17 17 18 26 5 9 -12 10 -12 7 -1
-7 24 -26 24 -38 -1z"/>
<path d="M797 3495 c-4 -8 -3 -16 1 -19 4 -3 9 4 9 15 2 23 -3 25 -10 4z"/>
<path d="M640 3496 c0 -2 7 -7 16 -10 8 -3 12 -2 9 4 -6 10 -25 14 -25 6z"/>
<path d="M316 3479 c3 -5 0 -9 -5 -9 -6 0 -11 -7 -11 -16 0 -12 5 -11 20 7 16
20 19 21 20 7 0 -10 5 -18 10 -18 17 0 -5 33 -24 36 -9 1 -14 -2 -10 -7z"/>
<path d="M415 3479 c-5 -8 -4 -10 3 -5 7 4 12 4 12 -1 0 -15 -15 -28 -34 -31
-17 -3 -18 -2 -7 12 9 11 10 16 2 16 -6 0 -11 -4 -11 -10 0 -5 0 -13 0 -17 0
-17 41 -9 51 9 12 23 -3 49 -16 27z"/>
<path d="M549 3471 c5 -9 6 -22 4 -28 -3 -7 1 -13 8 -13 7 0 9 3 6 7 -4 3 1
16 10 27 17 20 17 20 -1 6 -18 -13 -19 -13 -14 1 4 9 1 16 -7 16 -9 0 -11 -6
-6 -16z"/>
<path d="M620 3486 c0 -2 8 -10 18 -17 15 -13 16 -12 3 4 -13 16 -21 21 -21
13z"/>
<path d="M253 3465 c0 -8 4 -12 9 -9 4 3 8 0 8 -5 0 -6 5 -11 10 -11 6 0 5 8
-2 20 -15 24 -25 26 -25 5z"/>
<path d="M490 3460 c0 -5 5 -10 11 -10 5 0 7 5 4 10 -3 6 -8 10 -11 10 -2 0
-4 -4 -4 -10z"/>
<path d="M669 3443 c-13 -16 -12 -17 4 -4 9 7 17 15 17 17 0 8 -8 3 -21 -13z"/>
<path d="M316 3433 c-4 -13 -12 -23 -17 -23 -5 0 -9 -6 -9 -12 1 -7 10 -2 20
11 14 16 20 19 20 8 0 -8 -7 -20 -15 -27 -17 -14 -16 -32 0 -30 6 1 13 -9 16
-22 3 -13 11 -22 17 -20 7 1 12 -7 12 -18 0 -11 -6 -19 -12 -17 -7 1 -14 -9
-15 -23 -2 -24 -2 -24 5 -2 4 13 12 23 17 23 6 -1 10 8 10 19 0 11 -4 20 -10
19 -5 0 -13 10 -16 23 -3 13 -11 22 -17 21 -17 -4 -15 7 5 29 12 14 14 23 6
40 l-10 23 -7 -22z"/>
<path d="M470 3440 c0 -5 5 -10 11 -10 5 0 7 5 4 10 -3 6 -8 10 -11 10 -2 0
-4 -4 -4 -10z"/>
<path d="M873 3435 c0 -8 4 -12 9 -9 5 3 6 10 3 15 -9 13 -12 11 -12 -6z"/>
<path d="M255 3426 c17 -12 45 -12 45 1 0 3 -7 3 -15 0 -8 -4 -17 -2 -20 3 -4
6 -11 10 -18 10 -6 0 -2 -6 8 -14z"/>
<path d="M354 3420 c0 -13 4 -16 10 -10 7 7 7 13 0 20 -6 6 -10 3 -10 -10z"/>
<path d="M450 3429 c0 -5 -6 -7 -12 -3 -7 4 -9 3 -5 -1 13 -15 36 -14 30 1 -6
17 -13 18 -13 3z"/>
<path d="M686 3425 c-18 -14 -18 -14 1 -12 11 0 20 7 20 14 0 7 -1 13 -1 13
-1 0 -9 -7 -20 -15z"/>
<path d="M575 3419 c-3 -4 2 -6 10 -5 21 3 28 13 10 13 -9 0 -18 -4 -20 -8z"/>
<path d="M1825 3419 c5 -8 1 -9 -14 -4 -16 5 -27 1 -37 -12 -9 -10 -13 -12 -9
-5 4 7 0 12 -10 12 -9 0 -13 -4 -10 -10 3 -5 1 -10 -5 -10 -7 0 -19 -8 -28
-18 -10 -10 -13 -12 -8 -5 5 8 5 13 -1 13 -5 0 -15 -11 -21 -25 -6 -14 -16
-25 -21 -25 -6 0 -7 -7 -4 -17 4 -11 3 -14 -5 -9 -7 4 -12 1 -12 -8 0 -10 -6
-13 -17 -9 -12 5 -14 3 -8 -8 7 -12 6 -12 -7 -1 -11 9 -18 10 -23 2 -3 -5 -11
-10 -17 -10 -6 0 -5 7 3 18 11 14 10 13 -9 -2 -23 -20 -30 -32 -10 -20 7 4 8
3 4 -5 -6 -9 -11 -9 -24 1 -13 11 -14 11 -8 -1 6 -9 5 -12 -5 -9 -8 3 -13 12
-11 19 2 9 -4 7 -17 -5 -12 -11 -21 -15 -21 -10 0 6 -9 10 -20 11 -11 1 -20
-3 -20 -8 0 -6 4 -8 9 -4 5 3 12 1 15 -4 7 -11 -13 -9 -32 3 -7 4 -12 4 -11
-1 5 -27 -2 -53 -13 -47 -7 5 -9 2 -6 -8 5 -12 0 -15 -21 -13 -15 1 -36 -4
-46 -11 -12 -9 -14 -14 -6 -14 11 0 11 -3 0 -17 -12 -14 -12 -16 0 -8 10 5 12
4 7 -3 -4 -7 -15 -12 -24 -13 -11 0 -12 -2 -4 -6 19 -7 4 -23 -16 -16 -15 6
-15 5 1 -12 25 -25 1 -41 -26 -17 -15 13 -18 14 -15 2 2 -9 -3 -14 -11 -12 -8
2 -11 -3 -8 -13 4 -8 2 -15 -3 -15 -6 0 -10 7 -10 15 0 8 -5 15 -11 15 -6 0
-8 -7 -4 -17 5 -14 4 -15 -6 -6 -10 10 -18 8 -38 -9 -14 -13 -20 -16 -13 -8
16 19 16 35 -1 21 -8 -6 -17 -8 -20 -4 -4 3 -7 -2 -8 -13 0 -10 -3 -13 -6 -6
-2 6 -9 12 -14 12 -6 0 -7 -4 -4 -10 3 -5 -1 -10 -10 -10 -9 0 -13 -4 -10 -10
3 -5 1 -10 -4 -10 -6 0 -11 -9 -11 -21 0 -11 -4 -18 -10 -14 -5 3 -7 13 -4 23
5 14 4 14 -4 2 -6 -8 -8 -18 -5 -23 3 -4 -4 -11 -16 -14 -11 -3 -18 -9 -16
-14 3 -4 -4 -6 -15 -4 -11 2 -18 0 -15 -5 8 -12 -6 -41 -16 -34 -6 3 -16 1
-23 -5 -8 -7 -36 -10 -62 -9 -33 2 -48 -1 -47 -9 1 -6 -5 -10 -15 -8 -9 1 -20
-3 -24 -9 -5 -7 -8 -4 -8 8 0 15 -3 16 -15 6 -13 -11 -14 -10 -9 3 4 11 15 15
37 12 30 -4 31 -3 13 10 -11 8 -17 18 -13 21 4 4 12 3 19 -3 18 -13 60 -14 52
-2 -3 6 -12 8 -19 5 -7 -2 -22 2 -33 10 -19 13 -21 12 -27 -6 -4 -11 -15 -20
-26 -20 -13 0 -18 -4 -13 -12 5 -7 3 -8 -5 -4 -7 5 -10 11 -6 14 3 3 -4 11
-15 17 -20 11 -19 13 20 44 22 17 40 27 40 21 0 -5 5 -10 11 -10 5 0 8 4 5 9
-3 5 5 9 19 9 28 0 23 -15 -9 -28 -16 -7 -17 -9 -4 -9 9 -1 23 6 32 14 20 20
29 19 22 -3 -4 -12 1 -26 14 -37 11 -10 18 -21 15 -24 -7 -12 34 -10 44 3 7 8
4 15 -10 24 -10 7 -19 8 -19 3 0 -5 6 -11 13 -14 6 -2 8 -8 4 -13 -4 -4 -19 4
-32 19 -29 30 -32 42 -9 33 8 -3 25 -1 36 5 18 10 20 9 14 -7 -4 -10 -4 -15 0
-12 3 4 15 -3 26 -15 17 -19 18 -20 9 -2 -5 11 -16 29 -24 40 -13 17 -17 17
-31 5 -15 -11 -19 -11 -34 5 -16 17 -16 17 1 12 9 -4 24 -4 32 -1 12 5 10 10
-10 26 -30 24 -32 34 -5 34 13 0 19 -5 15 -14 -2 -7 -1 -11 4 -7 5 3 11 0 13
-7 3 -7 7 -5 11 6 4 9 3 15 -2 12 -5 -3 -11 1 -15 9 -3 9 -12 12 -23 8 -10 -3
-15 -3 -11 2 12 13 -10 42 -32 41 -11 0 -20 -5 -19 -10 0 -5 -5 -13 -13 -18
-10 -8 -10 -9 2 -5 8 2 14 10 12 16 -3 14 30 11 40 -3 3 -5 1 -17 -5 -27 -9
-14 -6 -21 14 -38 13 -11 19 -20 12 -21 -7 0 -28 14 -46 30 -37 32 -47 36 -47
19 0 -5 3 -8 8 -6 4 2 18 -6 32 -19 24 -24 19 -32 -9 -15 -9 6 -22 6 -32 0
-13 -7 -21 -5 -29 8 -9 14 -10 14 -7 2 3 -9 -2 -22 -12 -30 -56 -46 -54 -46
-46 -20 7 22 7 23 -12 4 -11 -10 -18 -21 -16 -24 1 -4 -4 -9 -12 -12 -10 -4
-12 -1 -8 10 5 13 2 15 -11 10 -9 -4 -15 -3 -12 1 3 5 -11 9 -30 9 -20 0 -40
6 -45 14 -8 13 -13 6 -10 -13 0 -4 -6 -5 -14 -2 -18 7 -20 -7 -3 -25 11 -11
10 -12 -2 -5 -8 5 -25 9 -37 10 -25 1 -85 48 -75 59 4 4 2 6 -3 4 -6 -1 -18 1
-28 6 -20 8 -67 -11 -67 -28 0 -6 8 -3 18 6 24 22 38 21 67 -2 l24 -18 -30
-22 -31 -23 -24 23 c-13 12 -24 19 -24 14 0 -4 9 -16 20 -25 12 -11 17 -21 11
-24 -5 -4 -14 2 -20 11 -6 10 -11 13 -11 7 0 -5 5 -15 10 -20 8 -8 6 -15 -6
-25 -12 -9 -15 -9 -10 -2 4 7 2 21 -3 30 -10 17 -10 17 -11 1 0 -10 -3 -17 -7
-17 -5 1 -15 1 -23 0 -13 -1 -13 -2 0 -11 8 -5 11 -12 7 -16 -3 -4 -14 -1 -22
6 -13 11 -18 10 -31 -6 -10 -13 -14 -14 -11 -4 2 8 -7 23 -21 34 -23 18 -24
18 -44 -2 l-20 -20 22 -30 c18 -24 27 -29 40 -22 10 5 21 6 25 2 5 -4 5 -1 0
7 -5 9 -3 12 6 9 8 -3 14 -10 14 -16 0 -7 3 -12 8 -12 4 0 10 0 13 0 4 0 1 7
-6 15 -9 10 -9 15 -1 15 6 0 11 -6 11 -12 1 -7 7 -2 15 12 8 14 14 21 15 17 0
-4 10 -2 23 5 12 7 27 13 32 13 6 1 9 7 7 14 -1 7 2 10 9 5 8 -5 9 -3 4 7 -5
8 -5 11 0 7 4 -4 13 -1 20 8 10 14 13 14 26 -3 13 -17 13 -17 -4 -4 -17 13
-18 13 -15 -4 2 -12 -3 -20 -11 -20 -8 0 -16 -6 -19 -13 -2 -8 3 -10 15 -6 14
5 15 4 4 -4 -8 -6 -21 -8 -30 -4 -12 4 -11 0 4 -19 17 -20 17 -22 1 -9 -24 19
-46 21 -39 4 3 -8 -1 -15 -8 -16 -8 0 -19 -2 -25 -2 -6 -1 -18 -9 -27 -17 -12
-13 -13 -19 -4 -29 7 -7 7 -10 1 -7 -6 3 -18 -3 -27 -14 -10 -11 -22 -17 -27
-14 -6 3 -10 -4 -10 -17 0 -17 3 -19 9 -9 5 8 11 9 15 3 3 -5 -1 -13 -10 -16
-9 -3 -12 -11 -8 -18 5 -9 2 -8 -9 1 -10 8 -20 11 -23 8 -3 -3 3 -12 15 -19
12 -7 21 -17 21 -22 0 -4 -7 -3 -15 4 -13 11 -15 9 -12 -9 5 -34 23 -47 44
-30 16 12 17 12 6 -2 -7 -9 -9 -20 -5 -24 4 -5 1 -5 -7 0 -8 4 -17 2 -23 -6
-8 -11 -9 -11 -5 2 3 9 0 22 -6 28 -6 6 -12 18 -14 26 -2 8 -4 22 -6 30 -7 33
-24 26 -18 -7 0 -5 -3 -8 -9 -8 -5 0 -10 5 -10 11 0 5 -6 7 -12 3 -9 -6 -9 -3
0 9 8 9 11 20 8 25 -3 5 1 9 9 9 8 0 11 -5 8 -11 -3 -6 -1 -6 7 1 7 6 19 9 27
6 9 -4 14 0 12 8 -4 23 13 53 21 39 5 -9 9 -9 14 -1 4 6 1 11 -6 11 -7 0 -2 7
11 16 20 14 21 18 8 25 -19 11 -44 2 -52 -19 -5 -13 -2 -13 15 3 11 10 23 15
27 12 9 -10 -28 -36 -49 -37 -10 0 -18 -4 -18 -10 0 -5 8 -6 18 -3 15 6 15 5
3 -11 -16 -19 -25 -13 -36 21 -4 16 -2 22 7 20 7 -2 10 -2 6 0 -16 9 -7 25 9
19 14 -6 14 -3 -3 16 -36 42 -44 49 -44 41 0 -5 5 -14 12 -21 9 -9 9 -12 0
-12 -7 0 -12 -5 -12 -11 0 -8 6 -7 17 2 15 12 16 12 10 -4 -4 -10 -7 -21 -7
-23 0 -3 -4 -2 -10 1 -6 4 -7 -1 -3 -12 6 -15 4 -16 -9 -5 -9 7 -24 9 -34 5
-17 -6 -17 -5 -5 10 7 9 17 14 22 11 5 -3 9 0 9 6 0 7 -7 9 -16 6 -10 -4 -14
-2 -11 6 2 7 10 12 16 10 6 -1 11 2 11 8 0 13 -17 13 -25 0 -8 -13 -45 -13
-45 0 0 6 8 10 17 8 15 -3 18 4 17 40 -1 34 2 42 13 38 8 -4 18 -6 21 -6 4 0
0 -4 -8 -10 -8 -5 -11 -13 -6 -17 8 -8 19 9 16 23 -1 4 4 11 12 16 9 7 7 8 -7
4 -24 -7 -40 3 -41 26 -1 10 5 16 17 15 22 -1 25 -13 7 -20 -7 -3 6 -4 29 -2
l43 3 -27 -34 c-14 -19 -23 -37 -19 -41 3 -3 6 -2 6 3 0 5 11 22 25 38 l25 29
20 -23 c11 -13 20 -18 20 -12 0 10 -13 21 -75 65 -21 15 -24 22 -14 33 8 10 8
14 0 14 -6 0 -11 -4 -11 -10 0 -5 -7 -7 -16 -3 -13 5 -13 8 -2 15 10 7 9 8 -4
4 -22 -7 -23 3 -2 32 18 26 34 29 35 5 0 -12 2 -13 6 -5 3 7 -3 22 -13 33 -16
18 -16 20 1 39 13 14 15 24 8 31 -11 11 -46 1 -38 -11 3 -4 -3 -14 -12 -21
-14 -12 -15 -11 -9 9 7 22 0 27 -33 23 -7 -2 -11 2 -8 6 3 5 2 15 -3 22 -5 9
-7 2 -6 -18 1 -28 7 -36 29 -32 9 1 9 -13 0 -22 -3 -4 -11 -3 -17 3 -9 6 -12
-5 -13 -41 0 -28 3 -45 7 -39 4 6 6 25 4 42 -3 26 -2 28 11 18 8 -6 18 -9 23
-6 5 3 9 -8 9 -23 0 -20 -5 -28 -16 -27 -10 1 -15 -6 -14 -17 1 -13 -4 -17
-14 -12 -13 5 -14 3 -3 -10 7 -9 16 -12 19 -8 3 4 14 9 23 11 12 2 16 -2 12
-13 -3 -8 -11 -12 -17 -8 -6 3 -7 1 -3 -5 9 -14 1 -15 -23 -3 -15 9 -17 5 -16
-22 2 -27 6 -32 25 -29 19 2 21 0 10 -13 -7 -9 -18 -14 -25 -12 -6 3 -11 -6
-10 -23 0 -16 3 -27 6 -25 3 2 6 -9 6 -25 0 -16 -4 -27 -8 -25 -4 3 -8 -625
-9 -1395 l-1 -1400 2531 0 2530 0 0 594 c0 326 -3 596 -6 599 -10 10 -34 -5
-27 -17 3 -6 2 -8 -2 -3 -5 4 -18 -1 -29 -10 -12 -10 -8 -3 8 15 17 17 25 32
19 32 -6 0 -16 -7 -23 -15 -10 -12 -15 -12 -34 0 -13 8 -26 12 -31 8 -4 -5 -5
-2 -1 5 6 11 13 10 32 -3 13 -8 24 -11 24 -6 0 9 -27 24 -46 26 -6 0 -19 7
-29 15 -19 15 -22 15 -42 -2 -7 -5 -17 -7 -22 -4 -6 4 -8 -4 -5 -18 2 -14 0
-27 -4 -30 -5 -3 -8 5 -7 17 3 29 -5 48 -16 41 -5 -3 -7 -11 -3 -17 3 -7 -4
-1 -16 12 l-21 25 6 -30 c5 -27 5 -27 -6 -6 -13 23 -26 27 -48 13 -9 -6 -10
-11 -2 -15 6 -4 11 -13 11 -19 0 -7 -10 3 -22 22 -12 19 -24 29 -26 22 -2 -6
1 -18 7 -25 8 -9 7 -13 -4 -13 -8 0 -12 4 -10 8 3 4 -3 10 -12 13 -10 4 -15 4
-11 1 10 -11 -24 -44 -38 -38 -8 3 -14 -1 -14 -10 0 -10 -8 -14 -25 -12 -22 2
-23 0 -13 -13 11 -13 10 -15 -6 -9 -15 6 -17 5 -7 -7 10 -11 6 -13 -22 -12
-23 2 -34 -2 -34 -11 0 -9 6 -12 16 -8 9 4 -1 -9 -23 -28 -21 -20 -36 -40 -32
-46 5 -7 -1 -11 -14 -11 -12 0 -19 -4 -15 -9 3 -6 -3 -14 -12 -20 -10 -6 -13
-11 -7 -11 7 0 14 -7 17 -14 4 -10 1 -13 -9 -9 -9 3 -14 -2 -14 -16 0 -12 -5
-21 -11 -21 -5 0 -7 -5 -3 -12 5 -7 2 -9 -8 -5 -12 4 -14 1 -10 -15 4 -16 2
-19 -8 -13 -10 6 -12 4 -7 -8 4 -10 1 -17 -6 -17 -8 0 -6 -4 3 -10 13 -9 13
-10 0 -10 -11 0 -15 -13 -15 -55 -1 -46 2 -55 16 -55 10 0 21 -5 25 -12 4 -7
3 -8 -4 -4 -7 4 -12 2 -12 -4 0 -6 -4 -8 -10 -5 -5 3 -10 1 -10 -4 0 -6 -5
-11 -11 -11 -6 0 -9 6 -6 13 3 8 -1 14 -9 14 -7 0 -11 -4 -8 -9 3 -4 -2 -5
-10 -2 -9 3 -13 10 -10 15 3 5 0 9 -6 9 -6 0 -8 5 -4 12 4 6 3 8 -4 5 -11 -8
-11 -25 1 -44 5 -8 4 -13 -2 -13 -10 0 -15 14 -12 33 1 7 -15 11 -32 8 -5 -1
-6 3 -3 8 4 5 3 11 -1 14 -5 2 -2 2 6 0 8 -2 11 2 7 12 -4 10 -2 14 5 9 7 -4
10 -1 7 7 -3 8 -11 13 -17 12 -18 -5 -13 11 9 25 12 7 18 17 15 22 -3 6 1 7
10 3 20 -7 38 16 25 32 -5 6 -5 17 2 25 8 13 9 13 5 -1 -3 -8 3 -21 14 -27 15
-10 17 -9 12 5 -4 9 -2 14 3 10 6 -3 10 9 10 28 0 18 -4 31 -8 29 -4 -3 -8 0
-8 6 0 7 -6 10 -14 7 -7 -3 -19 0 -26 6 -10 9 -11 9 -8 -3 3 -8 12 -14 21 -14
9 1 14 -3 10 -9 -3 -5 -1 -7 5 -3 6 3 13 2 17 -3 9 -15 -37 -4 -53 13 -11 10
-12 18 -3 32 6 11 11 13 11 7 0 -18 17 -16 17 1 0 8 -3 15 -6 14 -26 -3 -29 2
-46 65 -2 4 -4 10 -5 15 -1 4 -2 10 -2 13 1 4 -9 4 -21 1 -20 -5 -21 -4 -7 13
14 17 14 18 -10 5 -24 -13 -24 -12 -10 5 14 16 13 17 -6 11 -18 -5 -21 -3 -19
18 2 19 -1 23 -13 19 -11 -5 -13 -3 -7 7 5 8 4 11 -3 6 -6 -3 -13 2 -16 11 -3
10 -4 6 -2 -10 4 -33 -2 -35 -13 -4 -5 13 -16 24 -25 24 -8 0 -13 -4 -10 -9 3
-4 -2 -5 -10 -2 -9 3 -13 10 -10 16 3 5 -2 8 -13 6 -10 -1 -28 6 -40 17 -41
38 -52 45 -58 36 -3 -5 1 -11 7 -14 9 -3 7 -10 -6 -23 -16 -15 -17 -15 -7 -2
11 15 11 19 -3 24 -9 3 -13 11 -10 16 4 6 -4 4 -17 -2 -24 -13 -24 -13 -6 8
14 15 15 22 6 28 -7 4 -10 3 -6 -3 4 -6 0 -13 -8 -17 -8 -3 -17 -1 -19 3 -3 5
-17 7 -31 6 -14 -2 -23 0 -20 4 5 10 36 8 55 -4 13 -8 13 -7 1 8 -8 10 -19 16
-25 14 -6 -3 -19 0 -28 4 -10 6 -19 5 -23 -2 -5 -7 -14 -3 -27 11 l-20 21 22
21 c22 20 22 22 4 35 -11 8 -13 13 -5 13 8 0 20 -8 28 -17 13 -17 14 -16 10 4
-3 13 0 26 5 30 6 3 8 1 4 -5 -3 -6 -2 -13 4 -17 6 -4 7 -11 4 -17 -4 -6 2 -6
15 1 16 9 21 9 21 -1 0 -9 3 -10 8 -2 4 6 15 10 25 8 15 -2 22 7 18 29 0 4 3
7 9 7 5 0 10 -6 10 -12 0 -9 4 -8 10 2 9 13 10 13 10 0 1 -12 3 -11 11 3 6 9
16 14 22 11 7 -4 6 -1 -2 7 -10 11 -15 11 -18 1 -3 -6 -9 -10 -13 -7 -5 3 -7
12 -4 20 4 8 11 12 17 8 5 -3 7 -1 3 5 -3 6 -2 13 4 17 6 4 8 11 5 16 -4 5 1
9 9 9 9 0 16 4 16 9 0 5 8 18 18 27 16 17 16 18 0 11 -14 -5 -18 -1 -18 18 0
14 5 25 10 25 6 0 10 5 10 11 0 5 -5 7 -12 3 -7 -4 -8 -3 -4 4 4 7 1 12 -6 12
-9 0 -9 3 2 10 8 5 20 10 25 10 6 0 4 -4 -3 -9 -11 -7 -11 -9 2 -14 9 -4 15
-3 15 1 -4 22 2 42 11 37 6 -4 7 1 3 11 -5 13 -3 15 8 9 8 -5 5 1 -5 13 -21
24 -32 29 -20 10 4 -6 3 -8 -4 -4 -6 3 -13 2 -17 -4 -3 -5 -11 -10 -18 -10 -6
0 -1 7 11 16 l23 16 -20 34 c-11 19 -16 34 -11 34 4 0 10 -6 13 -12 2 -7 8 -9
13 -5 5 5 1 15 -10 23 -11 8 -14 14 -7 14 7 0 9 5 5 13 -6 9 -4 9 8 -1 11 -9
18 -10 23 -2 8 13 25 13 25 -1 0 -5 -5 -7 -12 -3 -7 5 -8 3 -3 -6 5 -8 4 -11
-3 -6 -6 4 -9 -3 -8 -19 2 -13 0 -23 -3 -20 -4 2 -7 -4 -8 -14 -1 -9 8 -23 20
-31 19 -12 20 -11 10 2 -10 11 -10 17 0 27 9 9 9 14 -2 21 -12 7 -12 11 2 25
18 18 16 67 -3 73 -5 2 -10 11 -10 19 0 9 -8 22 -17 30 -16 13 -16 13 4 4 14
-7 24 -8 28 -1 3 5 -1 10 -10 10 -10 0 -13 5 -9 12 4 6 3 8 -3 5 -6 -4 -14 4
-17 18 -4 14 -12 25 -19 25 -8 0 -7 4 3 10 13 8 12 10 -2 10 -15 0 -17 6 -13
33 4 26 1 38 -16 53 -13 10 -19 13 -15 7 4 -7 2 -13 -3 -13 -6 0 -11 5 -11 10
0 6 -7 10 -15 10 -8 0 -14 3 -14 8 3 18 -2 32 -11 32 -5 0 -7 -6 -4 -14 3 -8
1 -16 -4 -20 -5 -3 -8 9 -7 25 1 18 -4 33 -11 36 -8 3 -12 9 -9 14 3 4 -8 6
-24 4 -25 -3 -29 0 -26 17 3 12 -3 27 -13 35 -16 12 -16 13 0 7 16 -6 17 -4 3
22 -7 15 -11 32 -8 38 3 6 3 8 -1 4 -5 -4 -19 -3 -32 2 -15 6 -26 5 -30 -2 -4
-7 -12 -2 -19 13 -17 30 -62 34 -76 6 -8 -13 -14 -16 -21 -9 -6 6 -17 8 -26 4
-12 -4 -14 -1 -9 12 4 10 7 20 7 22 0 3 4 2 10 -1 5 -3 7 0 4 8 -2 7 -11 14
-18 14 -8 0 -12 -7 -9 -14 3 -8 0 -13 -8 -11 -16 4 -19 -24 -4 -35 8 -6 -27
-3 -45 3 -3 2 -9 2 -13 1 -5 -1 -5 4 -1 10 5 9 2 10 -11 5 -15 -5 -16 -4 -5 9
11 13 14 12 31 -8 10 -12 18 -19 19 -15 0 4 -8 17 -17 27 -12 14 -21 17 -33
11 -14 -8 -17 -5 -14 16 2 18 -2 24 -11 21 -7 -3 -12 1 -11 11 1 11 -6 16 -17
15 -12 -1 -17 4 -13 14 3 8 2 12 -3 8 -12 -7 -42 5 -36 15 3 4 -2 14 -11 21
-19 15 -47 21 -38 8 3 -5 0 -9 -5 -9 -6 0 -11 5 -11 11 0 5 -4 8 -9 4 -5 -3
-13 0 -17 6 -4 7 -3 9 3 6 6 -4 13 -1 16 6 3 8 -3 14 -16 14 -31 3 -41 18 -27
43 8 15 8 20 1 16 -11 -7 -15 6 -12 33 2 7 -3 10 -9 6 -6 -4 -9 -13 -7 -19 3
-7 0 -13 -7 -13 -7 0 -13 6 -13 14 0 7 4 13 9 13 5 0 6 5 3 10 -4 6 -3 10 2 9
34 -6 38 19 9 63 -10 15 -15 32 -11 38 4 6 3 10 -2 9 -21 -4 -33 2 -33 17 0 8
-4 12 -10 9 -5 -3 -10 0 -10 7 0 11 -2 10 -9 0 -11 -19 -18 1 -16 51 0 20 -3
37 -8 37 -4 0 -6 4 -3 8 7 11 -8 33 -25 35 -23 4 -40 18 -33 28 3 6 -3 5 -14
-2 -15 -10 -18 -17 -11 -25 8 -10 5 -10 -15 -1 -14 7 -26 17 -26 22 0 6 -5 3
-10 -5 -8 -12 -10 -11 -10 8 0 24 -10 28 -28 10 -9 -9 -12 -9 -12 1 0 7 -5 9
-12 5 -8 -5 -9 -2 -5 9 4 11 1 17 -8 17 -8 0 -15 5 -15 11 0 5 -4 7 -10 4 -6
-3 -10 5 -10 18 0 14 -7 28 -16 31 -8 3 -12 12 -9 18 4 7 -1 4 -10 -7 -17 -20
-17 -20 -10 5 6 20 5 23 -6 13 -19 -19 -34 -16 -18 4 10 11 10 14 2 9 -8 -4
-13 -2 -13 4 0 6 -10 11 -22 10 -13 -1 -25 -1 -28 0 -3 1 -17 3 -31 4 -20 1
-25 -2 -21 -14 5 -13 4 -13 -13 0 -10 8 -16 10 -12 4 4 -7 -1 -18 -10 -25 -9
-8 -14 -9 -10 -3 4 7 0 14 -8 18 -8 3 -17 0 -21 -6 -4 -7 -3 -8 4 -4 7 4 12 5
12 2 0 -3 -10 -10 -21 -17 -17 -9 -20 -8 -13 3 6 10 4 9 -10 -1 -17 -14 -17
-15 3 -23 12 -4 21 -9 21 -12 0 -7 -40 6 -45 15 -3 4 -13 5 -23 2 -22 -8 -54
-40 -44 -46 4 -2 2 -3 -4 -1 -6 1 -17 -2 -23 -7 -8 -6 -8 -5 -1 3 15 18 12 28
-10 28 -11 0 -20 5 -20 11 0 5 5 7 12 3 6 -4 8 -3 4 4 -3 6 -15 9 -26 7 -11
-2 -20 1 -20 6 0 6 -5 7 -12 3 -8 -5 -9 -2 -5 10 4 9 3 15 -2 11 -5 -3 -17 -2
-26 1 -13 5 -16 16 -12 45 3 29 0 43 -14 55 -17 16 -19 16 -25 0 -4 -10 -12
-15 -20 -12 -7 3 -15 1 -18 -5 -2 -5 -3 -4 -2 3 2 7 9 13 17 13 8 0 16 11 17
24 3 18 0 22 -11 18 -10 -4 -13 0 -10 13 6 21 -12 36 -23 19 -5 -8 -3 -9 7 -4
8 5 10 4 6 0 -13 -15 -36 -14 -30 1 3 8 0 14 -6 14 -6 0 -11 -4 -11 -10 0 -20
-16 -9 -17 12 -3 28 -21 46 -56 52 -25 4 -27 2 -22 -17 5 -19 5 -20 -5 -4 -6
9 -15 15 -20 12 -4 -3 -6 4 -3 16 5 16 1 20 -13 19 -35 -4 -54 0 -54 11 0 5 4
8 9 4 5 -3 13 0 17 6 4 8 3 9 -4 5 -7 -4 -12 -1 -12 6 0 9 -3 9 -10 -2 -8 -12
-10 -12 -10 -1 0 11 -3 11 -15 1 -9 -8 -13 -21 -10 -34 5 -15 3 -17 -3 -8 -5
8 -15 12 -23 11 -23 -5 -61 21 -55 37 3 8 1 14 -4 14 -6 0 -10 -8 -10 -17 0
-14 -3 -13 -16 5 -8 12 -20 20 -25 16 -6 -3 -3 -11 6 -18 15 -10 14 -12 -4
-12 -11 0 -18 3 -16 6 2 3 -3 16 -11 30 l-15 25 7 -25 c6 -24 5 -24 -9 -6 -16
21 -74 36 -62 15z m320 -99 c3 -5 1 -10 -4 -10 -6 0 -11 5 -11 10 0 6 2 10 4
10 3 0 8 -4 11 -10z m-124 -27 c13 -16 12 -17 -3 -4 -10 7 -18 15 -18 17 0 8
8 3 21 -13z m-456 -73 c3 -5 1 -10 -4 -10 -6 0 -11 5 -11 10 0 6 2 10 4 10 3
0 8 -4 11 -10z m690 0 c-3 -5 -12 -10 -18 -10 -7 0 -6 4 3 10 19 12 23 12 15
0z m-908 -55 c0 -8 -4 -12 -9 -9 -5 3 -6 10 -3 15 9 13 12 11 12 -6z m1063 1
c0 -2 -7 -6 -15 -10 -8 -3 -15 -1 -15 4 0 6 7 10 15 10 8 0 15 -2 15 -4z
m-2366 -24 c3 -5 -1 -9 -9 -9 -8 0 -12 4 -9 9 3 4 7 8 9 8 2 0 6 -4 9 -8z m66
3 c0 -3 -9 -16 -20 -27 -14 -15 -17 -24 -8 -29 8 -5 7 -11 -4 -23 -14 -14 -15
-12 -14 12 2 28 25 72 38 72 5 0 8 -2 8 -5z m-60 -45 c0 -5 -5 -10 -11 -10 -5
0 -7 5 -4 10 3 6 8 10 11 10 2 0 4 -4 4 -10z m2331 -33 c-10 -9 -11 -8 -5 6 3
10 9 15 12 12 3 -3 0 -11 -7 -18z m35 -36 c0 -19 -19 -22 -33 -6 -4 4 -3 5 3
2 7 -4 14 0 18 8 7 20 12 19 12 -4z m50 7 c4 -7 4 -10 -1 -6 -4 4 -14 3 -22
-3 -8 -8 -13 -8 -13 -1 0 6 6 13 13 15 6 3 13 6 14 6 1 1 5 -5 9 -11z m-2416
-24 c0 -8 -4 -12 -10 -9 -5 3 -10 10 -10 16 0 5 5 9 10 9 6 0 10 -7 10 -16z
m60 -49 c20 -21 21 -25 6 -25 -9 0 -14 5 -11 10 6 9 -8 14 -27 11 -5 0 -8 6
-8 14 0 22 13 18 40 -10z m-76 -11 c22 -8 20 -21 -5 -27 -16 -4 -18 -3 -9 8 8
10 7 14 -2 18 -7 3 -10 6 -6 6 3 1 13 -2 22 -5z m426 -37 c13 -9 19 -17 13
-17 -7 0 -15 5 -18 10 -4 6 -11 8 -16 5 -5 -4 -9 -1 -9 4 0 6 -5 11 -11 11 -5
0 -7 -4 -4 -10 3 -6 -1 -7 -10 -4 -14 6 -14 8 2 19 10 7 20 10 23 6 3 -4 16
-15 30 -24z m2516 21 c3 -4 -1 -5 -10 -4 -8 1 -18 5 -22 8 -3 4 1 5 10 4 8 -1
18 -5 22 -8z m144 -13 c7 -9 8 -15 2 -15 -5 0 -12 7 -16 15 -3 8 -4 15 -2 15
2 0 9 -7 16 -15z m40 -20 c7 -9 8 -15 2 -15 -5 0 -12 7 -16 15 -3 8 -4 15 -2
15 2 0 9 -7 16 -15z m-2458 -19 c7 4 8 2 4 -5 -9 -14 -36 3 -36 23 0 6 5 3 11
-7 6 -9 15 -14 21 -11z m-656 -23 l2 -37 -19 23 c-18 22 -18 24 -2 37 10 7 18
14 18 14 0 0 1 -17 1 -37z m128 15 c25 -26 26 -47 3 -59 -20 -11 -21 -11 -9 4
17 21 6 40 -19 32 -22 -7 -24 0 -6 20 15 18 16 18 31 3z m2992 0 c5 4 6 3 2
-2 -4 -5 -3 -15 2 -21 10 -12 4 -45 -9 -45 -3 0 -13 5 -21 11 -13 9 -12 10 2
5 28 -9 32 14 7 42 -13 14 -17 21 -8 14 9 -6 20 -8 25 -4z m-2873 -15 c-3 -7
-6 -13 -8 -13 -2 0 -5 6 -8 13 -3 8 1 14 8 14 7 0 11 -6 8 -14z m433 -19 c1
-9 0 -13 -4 -10 -3 4 -7 14 -8 22 -1 9 0 13 4 10 3 -4 7 -14 8 -22z m-478 3
c8 -10 6 -13 -9 -13 -19 0 -24 7 -12 19 8 9 9 9 21 -6z m-78 -7 c0 -5 -4 -10
-10 -10 -5 0 -10 5 -10 10 0 6 5 10 10 10 6 0 10 -4 10 -10z m2456 -36 c1 -9
0 -13 -4 -10 -3 4 -7 14 -8 22 -1 9 0 13 4 10 3 -4 7 -14 8 -22z m-2571 -13
c3 -5 1 -12 -4 -15 -5 -3 -7 -16 -3 -28 3 -13 1 -19 -5 -15 -5 3 -10 0 -10 -8
0 -8 5 -15 10 -15 5 0 4 -7 -3 -15 -10 -12 -8 -21 9 -49 17 -27 18 -34 7 -32
-9 1 -19 6 -23 11 -4 4 -2 5 5 1 6 -4 12 -3 12 2 0 16 -13 22 -27 11 -9 -9
-13 -8 -13 0 0 6 4 11 8 11 5 0 9 13 9 30 0 18 -4 27 -11 23 -6 -4 -5 1 3 10
7 9 9 17 4 17 -5 0 -10 7 -10 15 0 9 5 14 12 12 6 -3 11 5 12 17 0 11 -1 15
-4 9 -3 -7 -9 -13 -15 -13 -6 0 -6 6 2 15 14 17 26 19 35 6z m42 -47 c5 -13 8
-13 15 -2 6 9 7 5 3 -11 -5 -15 -3 -21 3 -17 6 3 13 2 16 -3 3 -4 -4 -8 -17
-7 -13 1 -21 -4 -19 -12 1 -7 -5 -15 -13 -18 -8 -3 -12 -10 -9 -15 3 -5 0 -9
-5 -9 -12 0 -13 2 -16 45 -3 51 27 87 42 49z m2518 -63 c-3 -2 -11 1 -18 7 -8
7 -18 8 -22 4 -5 -4 -5 -1 -1 5 5 10 11 10 26 1 11 -7 17 -14 15 -17z m670 9
c3 -5 1 -10 -4 -10 -6 0 -11 5 -11 10 0 6 2 10 4 10 3 0 8 -4 11 -10z m-639
-19 c-4 -5 0 -11 6 -14 7 -3 3 -4 -9 -4 -17 1 -19 4 -11 14 12 15 22 18 14 4z
m84 -26 c0 -7 -30 -13 -34 -7 -3 4 4 9 15 9 10 1 19 0 19 -2z m-2633 -11 c-3
-3 -12 -4 -19 -1 -8 3 -5 6 6 6 11 1 17 -2 13 -5z m2588 -4 c6 0 2 -5 -8 -11
-12 -7 -23 -6 -39 5 -21 15 -20 15 8 11 16 -2 34 -4 39 -5z m-2548 -6 c-3 -3
-12 -4 -19 -1 -8 3 -5 6 6 6 11 1 17 -2 13 -5z m68 -4 c-3 -5 -12 -10 -18 -10
-7 0 -6 4 3 10 19 12 23 12 15 0z m2423 -5 c4 -5 -1 -5 -12 -1 -10 3 -24 2
-31 -4 -8 -7 -12 -6 -12 4 0 15 42 15 55 1z m-2480 -26 c2 -8 0 -10 -5 -4 -4
6 -17 12 -27 13 -18 3 -19 2 -5 -15 13 -16 13 -17 -3 -4 -10 7 -15 17 -12 22
8 13 47 4 52 -12z m-100 -3 c-7 -8 -15 -12 -17 -11 -5 6 10 25 20 25 5 0 4 -6
-3 -14z m2612 10 c0 -2 -7 -6 -15 -10 -8 -3 -15 -1 -15 4 0 6 7 10 15 10 8 0
15 -2 15 -4z m625 -16 c3 -5 2 -10 -4 -10 -5 0 -13 5 -16 10 -3 6 -2 10 4 10
5 0 13 -4 16 -10z m-3199 -15 c-1 -8 -8 -21 -16 -28 -10 -10 -11 -9 -4 3 5 8
9 18 10 23 3 14 4 17 8 17 2 0 3 -7 2 -15z m49 -5 c-3 -5 -14 -10 -23 -9 -14
0 -13 2 3 9 27 11 27 11 20 0z m3175 -40 c0 -5 -5 -10 -11 -10 -5 0 -7 5 -4
10 3 6 8 10 11 10 2 0 4 -4 4 -10z m77 -45 c0 -8 -4 -12 -9 -9 -5 3 -6 10 -3
15 9 13 12 11 12 -6z m248 -155 c-3 -5 -12 -10 -18 -10 -7 0 -6 4 3 10 19 12
23 12 15 0z m95 0 c0 -5 -5 -10 -11 -10 -5 0 -7 5 -4 10 3 6 8 10 11 10 2 0 4
-4 4 -10z m-45 -9 c3 -5 2 -12 -3 -15 -5 -3 -9 1 -9 9 0 17 3 19 12 6z m-95
-5 c0 -3 -4 -8 -10 -11 -5 -3 -10 -1 -10 4 0 6 5 11 10 11 6 0 10 -2 10 -4z
m200 -6 c0 -5 -2 -10 -4 -10 -3 0 -8 5 -11 10 -3 6 -1 10 4 10 6 0 11 -4 11
-10z m40 -90 c-6 -11 -13 -20 -16 -20 -2 0 0 9 6 20 6 11 13 20 16 20 2 0 0
-9 -6 -20z m-250 -50 c8 -5 11 -10 5 -10 -5 0 -17 5 -25 10 -8 5 -10 10 -5 10
6 0 17 -5 25 -10z m330 6 c0 -3 -4 -8 -10 -11 -5 -3 -10 -1 -10 4 0 6 5 11 10
11 6 0 10 -2 10 -4z m-380 -40 c0 -3 -4 -8 -10 -11 -5 -3 -10 -1 -10 4 0 6 5
11 10 11 6 0 10 -2 10 -4z m421 -63 c13 -16 12 -17 -3 -4 -17 13 -22 21 -14
21 2 0 10 -8 17 -17z m30 -16 c-10 -9 -11 -8 -5 6 3 10 9 15 12 12 3 -3 0 -11
-7 -18z m14 -27 c3 -5 1 -10 -4 -10 -6 0 -11 5 -11 10 0 6 2 10 4 10 3 0 8 -4
11 -10z m-370 -29 c3 -5 2 -12 -3 -15 -5 -3 -9 1 -9 9 0 17 3 19 12 6z m378 1
c3 7 6 8 6 2 1 -5 -6 -19 -15 -30 -8 -10 -13 -13 -9 -6 4 7 1 21 -7 30 -12 15
-11 16 4 4 13 -10 17 -10 21 0z m27 -22 c0 -5 -5 -10 -11 -10 -5 0 -7 5 -4 10
3 6 8 10 11 10 2 0 4 -4 4 -10z m4 -32 c-3 -4 -11 -5 -19 -1 -21 7 -19 12 4
10 11 0 18 -5 15 -9z m-89 -27 c3 -5 2 -12 -3 -15 -5 -3 -9 1 -9 9 0 17 3 19
12 6z m-211 -49 c3 -5 -1 -9 -9 -9 -8 0 -12 4 -9 9 3 4 7 8 9 8 2 0 6 -4 9 -8z
m326 4 c0 -2 -7 -7 -16 -10 -8 -3 -12 -2 -9 4 6 10 25 14 25 6z m-49 -23 c13
-16 12 -17 -3 -4 -17 13 -22 21 -14 21 2 0 10 -8 17 -17z m68 -4 c-19 -12 -29
-11 -29 2 0 5 5 7 10 4 6 -3 10 -1 10 5 0 6 5 8 11 4 8 -4 7 -9 -2 -15z m-69
-24 c0 -2 -6 -7 -12 -11 -7 -4 -10 -4 -6 1 4 4 0 14 -10 22 -15 13 -15 13 6 3
12 -6 22 -13 22 -15z m-56 7 c3 -5 -1 -9 -9 -9 -8 0 -12 4 -9 9 3 4 7 8 9 8 2
0 6 -4 9 -8z m6 -38 c0 -8 -19 -13 -24 -6 -3 5 1 9 9 9 8 0 15 -2 15 -3z m50
-26 c19 -32 18 -49 -3 -47 -9 0 -9 2 0 6 10 3 9 11 -2 33 -8 15 -20 30 -27 33
-10 4 -10 6 0 6 7 1 21 -13 32 -31z m-25 2 c3 -6 -1 -7 -9 -4 -18 7 -21 14 -7
14 6 0 13 -4 16 -10z m-98 -15 c0 -8 -4 -12 -9 -9 -5 3 -6 10 -3 15 9 13 12
11 12 -6z m43 -1 c0 -8 -19 -13 -24 -6 -3 5 1 9 9 9 8 0 15 -2 15 -3z m40 -24
c0 -5 -4 -10 -10 -10 -5 0 -10 5 -10 10 0 6 5 10 10 10 6 0 10 -4 10 -10z
m-44 -36 c1 -9 0 -13 -4 -10 -3 4 -7 14 -8 22 -1 9 0 13 4 10 3 -4 7 -14 8
-22z m138 1 c-4 -8 -10 -12 -15 -9 -5 3 -9 0 -9 -7 0 -7 -3 -9 -7 -5 -5 4 1
14 11 22 25 18 27 18 20 -1z m-299 -4 c3 -5 2 -12 -3 -15 -5 -3 -9 1 -9 9 0
17 3 19 12 6z m196 -18 c-12 -20 -14 -14 -5 12 4 9 9 14 11 11 3 -2 0 -13 -6
-23z m-291 1 c0 -8 -19 -13 -24 -6 -3 5 1 9 9 9 8 0 15 -2 15 -3z m350 -8 c0
-2 -7 -6 -15 -10 -8 -3 -15 -1 -15 4 0 6 7 10 15 10 8 0 15 -2 15 -4z m-116
-22 c3 -8 2 -12 -4 -9 -6 3 -10 10 -10 16 0 14 7 11 14 -7z m-236 -19 c-3 -3
-9 2 -12 12 -6 14 -5 15 5 6 7 -7 10 -15 7 -18z m175 10 c-3 -9 -8 -14 -10
-11 -3 3 -2 9 2 15 9 16 15 13 8 -4z m122 5 c4 -6 11 -8 16 -5 5 4 9 1 9 -4 0
-15 -11 -13 -34 4 -11 8 -15 15 -9 15 7 0 15 -5 18 -10z m-200 -9 c3 -5 2 -12
-3 -15 -5 -3 -9 1 -9 9 0 17 3 19 12 6z m180 -9 c-3 -3 -11 0 -18 7 -9 10 -8
11 6 5 10 -3 15 -9 12 -12z m61 -19 c-1 -16 2 -34 8 -41 7 -10 4 -19 -14 -33
-14 -10 -21 -19 -17 -19 5 0 -1 -12 -12 -26 -11 -15 -18 -31 -14 -38 3 -6 2
-7 -3 -3 -4 4 -8 23 -9 42 0 18 -4 33 -10 32 -5 -1 -9 -6 -7 -11 3 -10 -17
-26 -33 -26 -5 1 -1 7 9 15 11 8 16 15 12 15 -5 0 -3 6 3 14 8 10 9 16 1 21
-5 3 -10 10 -10 16 0 5 13 -5 30 -23 16 -18 30 -28 30 -22 0 6 -9 19 -20 29
-11 10 -20 23 -20 29 0 6 6 4 13 -4 7 -9 18 -15 25 -14 6 1 16 2 21 3 6 0 8
10 6 21 -4 19 3 50 10 50 2 0 3 -12 1 -27z m-101 7 c-3 -5 -14 -10 -23 -9 -14
0 -13 2 3 9 27 11 27 11 20 0z m15 -20 c-24 -15 -36 -11 -14 4 10 8 21 12 24
10 2 -3 -2 -9 -10 -14z m56 -17 c-3 -4 -6 -1 -6 6 0 7 -4 9 -10 6 -6 -4 -7 1
-3 11 6 15 7 15 15 -1 6 -9 7 -19 4 -22z m-168 2 c17 -19 16 -20 -3 -4 -11 9
-30 15 -42 14 -12 -1 -20 2 -17 6 8 14 45 5 62 -16z m47 15 c-3 -5 -12 -10
-18 -10 -7 0 -6 4 3 10 19 12 23 12 15 0z m40 -66 c-8 -6 -11 -15 -7 -19 4 -4
-3 -2 -15 4 -27 14 -31 23 -6 14 11 -4 14 -3 9 5 -5 8 -1 10 11 5 15 -5 16 -3
6 8 -7 7 -13 17 -13 23 0 5 7 1 15 -10 12 -16 12 -20 0 -30z m-101 28 c3 -5
-1 -9 -9 -9 -8 0 -15 4 -15 9 0 4 4 8 9 8 6 0 12 -4 15 -8z m33 -49 c0 -10 -4
-10 -16 -1 -9 7 -18 13 -20 15 -2 1 5 1 16 0 11 0 20 -7 20 -14z m20 -28 c0
-8 -4 -12 -9 -9 -4 3 -8 0 -8 -7 0 -7 -3 -9 -6 -6 -4 4 -1 13 6 22 15 19 17
19 17 0z m29 -10 c-3 -8 -8 -21 -11 -28 -4 -8 1 -14 10 -14 9 0 14 6 11 13 -3
7 6 20 20 28 13 9 24 12 24 6 0 -5 -6 -10 -12 -10 -9 0 -8 -4 2 -11 12 -8 9
-9 -10 -4 l-25 6 25 -15 c14 -9 21 -16 15 -17 -69 -8 -75 -7 -75 11 0 10 5 22
10 25 6 4 8 11 5 16 -4 5 -1 9 5 9 7 0 9 -7 6 -15z m-69 -8 c0 -8 -6 -14 -14
-14 -9 0 -10 4 -2 14 6 7 12 13 14 13 1 0 2 -6 2 -13z m-323 -13 c3 -8 2 -12
-4 -9 -6 3 -10 10 -10 16 0 14 7 11 14 -7z m281 7 c3 -5 2 -12 -3 -15 -5 -3
-9 1 -9 9 0 17 3 19 12 6z m-381 -20 c-9 -9 -34 -9 -34 -1 0 5 9 8 20 7 10 -1
17 -3 14 -6z m342 -27 c1 -9 0 -13 -4 -10 -3 4 -7 14 -8 22 -1 9 0 13 4 10 3
-4 7 -14 8 -22z m-221 6 c3 -5 1 -10 -4 -10 -6 0 -11 5 -11 10 0 6 2 10 4 10
3 0 8 -4 11 -10z m265 4 c0 -8 -19 -13 -24 -6 -3 5 1 9 9 9 8 0 15 -2 15 -3z
m20 -22 c0 -12 -22 -32 -34 -32 -6 0 -3 5 7 11 9 6 15 14 12 20 -4 5 -1 9 4 9
6 0 11 -4 11 -8z m-30 -6 c0 -2 -7 -7 -16 -10 -8 -3 -12 -2 -9 4 6 10 25 14
25 6z m-130 -16 c0 -5 -5 -10 -11 -10 -5 0 -7 5 -4 10 3 6 8 10 11 10 2 0 4
-4 4 -10z m64 2 c3 -5 -1 -9 -9 -9 -8 0 -12 4 -9 9 3 4 7 8 9 8 2 0 6 -4 9 -8z
m35 -32 c0 -10 -3 -8 -9 5 -12 27 -12 43 0 25 5 -8 9 -22 9 -30z m65 -50 c-6
-6 -21 -12 -33 -13 -14 -1 -19 -6 -16 -17 3 -10 0 -17 -9 -17 -11 0 -12 6 -5
24 11 31 -3 30 -17 -1 -9 -18 -9 -28 0 -37 8 -10 6 -10 -6 0 -10 7 -15 17 -12
22 3 5 0 9 -7 9 -7 0 -9 3 -6 7 4 3 2 11 -3 18 -7 8 -5 12 5 12 8 0 12 -3 10
-7 -2 -3 0 -12 6 -20 7 -12 9 -11 10 5 1 11 1 27 0 35 0 10 1 11 5 3 6 -14 25
-18 22 -5 0 4 2 15 7 25 7 17 10 17 34 -7 18 -18 22 -29 15 -36z m-98 35 c-24
-18 -33 -19 -42 -3 -4 7 -3 8 4 4 7 -4 20 -2 29 3 26 15 31 13 9 -4z m-206
-16 c0 -5 -4 -9 -8 -9 -5 0 -9 7 -9 15 0 8 4 12 9 9 4 -3 8 -9 8 -15z m36 1
c0 -12 -4 -16 -9 -11 -5 5 -6 14 -3 20 10 15 12 14 12 -9z m114 -5 c11 -13 10
-14 -4 -9 -9 3 -16 10 -16 15 0 13 6 11 20 -6z m0 -30 c0 -12 -19 -12 -23 0
-4 9 -1 12 9 8 7 -3 14 -7 14 -8z m-273 -10 c0 -8 -4 -12 -9 -9 -5 3 -6 10 -3
15 9 13 12 11 12 -6z m127 7 c3 -5 -1 -9 -9 -9 -8 0 -12 4 -9 9 3 4 7 8 9 8 2
0 6 -4 9 -8z m92 -4 c4 -7 4 -10 -1 -6 -4 4 -15 2 -24 -5 -14 -11 -14 -10 -2
6 16 20 18 21 27 5z m84 2 c0 -5 -4 -10 -10 -10 -5 0 -10 5 -10 10 0 6 5 10
10 10 6 0 10 -4 10 -10z m209 -4 c9 -11 9 -16 -1 -22 -7 -4 -10 -4 -6 1 4 4 3
14 -3 22 -6 7 -9 13 -6 13 2 0 10 -6 16 -14z m-344 -16 c-3 -5 -12 -10 -18
-10 -7 0 -6 4 3 10 19 12 23 12 15 0z m-52 -15 c-3 -9 -8 -14 -10 -11 -3 3 -2
9 2 15 9 16 15 13 8 -4z m105 3 c-2 -6 -12 -12 -21 -14 -9 -1 -15 2 -11 7 3 5
10 7 15 4 5 -4 9 -1 9 4 0 6 3 11 6 11 3 0 4 -5 2 -12z m80 4 c15 12 16 11 3
-4 -7 -10 -18 -15 -24 -11 -6 4 -8 0 -5 -9 4 -8 1 -15 -7 -15 -10 0 -11 6 -2
25 6 13 13 19 15 13 3 -9 8 -8 20 1z m1092 -11 c7 -15 7 -22 -2 -27 -7 -4 -10
-4 -6 1 4 4 3 16 -3 26 -5 11 -7 19 -5 19 3 0 10 -9 16 -19z m157 -7 c2 -14 1
-15 -5 -4 -8 17 -32 25 -32 10 0 -5 -5 -10 -11 -10 -8 0 -8 4 0 14 16 19 45
13 48 -10z m-1472 7 c3 -5 2 -12 -3 -15 -5 -3 -9 1 -9 9 0 17 3 19 12 6z m160
-21 c3 -5 1 -10 -4 -10 -6 0 -11 5 -11 10 0 6 2 10 4 10 3 0 8 -4 11 -10z
m-58 -14 c0 -8 -6 -12 -15 -9 -11 5 -11 7 0 14 7 5 13 9 14 9 0 0 1 -6 1 -14z
m36 -6 c3 -11 1 -18 -4 -14 -5 3 -9 12 -9 20 0 20 7 17 13 -6z m472 0 c3 -6
-1 -7 -9 -4 -18 7 -21 14 -7 14 6 0 13 -4 16 -10z m630 0 c3 -5 1 -10 -4 -10
-6 0 -11 5 -11 10 0 6 2 10 4 10 3 0 8 -4 11 -10z m-1151 -18 c3 -5 -1 -9 -9
-9 -8 0 -12 4 -9 9 3 4 7 8 9 8 2 0 6 -4 9 -8z m31 -11 c3 -5 2 -12 -3 -15 -5
-3 -9 1 -9 9 0 17 3 19 12 6z m45 -7 c0 -8 -19 -13 -24 -6 -3 5 1 9 9 9 8 0
15 -2 15 -3z m-285 -52 c-3 -3 -11 0 -18 7 -9 10 -8 11 6 5 10 -3 15 -9 12
-12z m920 -21 c3 -5 0 -13 -6 -17 -7 -4 -9 -3 -5 4 3 5 0 13 -6 15 -9 4 -10 6
-1 6 6 1 14 -3 18 -8z m15 -52 c0 -5 -4 -9 -8 -9 -5 0 -9 7 -9 15 0 8 4 12 9
9 4 -3 8 -9 8 -15z m-26 -17 c3 -5 -1 -9 -9 -9 -8 0 -12 4 -9 9 3 4 7 8 9 8 2
0 6 -4 9 -8z m36 -9 c0 -5 -5 -15 -10 -23 -7 -12 -9 -10 -7 8 1 19 17 33 17
15z m-23 -63 c-5 -31 -13 -32 -12 -1 0 16 3 27 7 25 4 -3 6 -14 5 -24z m39
-29 c-9 -14 -26 -14 -26 0 0 5 5 7 12 3 8 -5 9 -1 4 12 -5 14 -4 16 5 7 6 -6
8 -16 5 -22z m-67 -5 c9 -11 9 -16 -1 -22 -7 -4 -10 -4 -6 1 4 4 3 14 -3 22
-6 7 -9 13 -6 13 2 0 10 -6 16 -14z m121 10 c0 -3 -4 -8 -10 -11 -5 -3 -10 -1
-10 4 0 6 5 11 10 11 6 0 10 -2 10 -4z m-89 -49 c-10 -9 -11 -8 -5 6 3 10 9
15 12 12 3 -3 0 -11 -7 -18z m39 3 c0 -5 -2 -10 -4 -10 -3 0 -8 5 -11 10 -3 6
-1 10 4 10 6 0 11 -4 11 -10z m-80 -65 c0 -5 -5 -3 -10 5 -5 8 -10 20 -10 25
0 6 5 3 10 -5 5 -8 10 -19 10 -25z m0 -80 c-5 -6 -8 -21 -5 -33 2 -12 1 -24
-3 -26 -4 -3 -8 12 -8 33 0 24 4 38 13 38 8 0 10 -4 3 -12z m44 -11 c3 -8 2
-12 -4 -9 -6 3 -10 10 -10 16 0 14 7 11 14 -7z m-27 -86 c-3 -8 -6 -5 -6 6 -1
11 2 17 5 13 3 -3 4 -12 1 -19z m-66 -11 c-10 -9 -11 -8 -5 6 3 10 9 15 12 12
3 -3 0 -11 -7 -18z m44 14 c3 -5 2 -12 -3 -15 -5 -3 -9 1 -9 9 0 17 3 19 12 6z
m53 -16 c-3 -3 -9 2 -12 12 -6 14 -5 15 5 6 7 -7 10 -15 7 -18z m-28 -20 c0
-8 -4 -15 -10 -15 -5 0 -7 7 -4 15 4 8 8 15 10 15 2 0 4 -7 4 -15z m60 -26 c0
-5 -4 -9 -8 -9 -5 0 -9 7 -9 15 0 8 4 12 9 9 4 -3 8 -9 8 -15z m-96 3 c3 -5
-1 -9 -9 -9 -8 0 -12 4 -9 9 3 4 7 8 9 8 2 0 6 -4 9 -8z m66 -18 c0 -8 -19
-13 -24 -6 -3 5 1 9 9 9 8 0 15 -2 15 -3z m33 -17 c3 -7 -3 -13 -14 -13 -13 0
-15 3 -7 13 6 7 12 13 13 13 2 0 5 -6 8 -13z m-48 -15 c-3 -3 -11 0 -18 7 -9
10 -8 11 6 5 10 -3 15 -9 12 -12z"/>
<path d="M70 2740 c0 -5 5 -10 11 -10 5 0 7 5 4 10 -3 6 -8 10 -11 10 -2 0 -4
-4 -4 -10z"/>
<path d="M64 2690 c-1 -14 1 -19 3 -12 3 6 10 9 16 5 7 -3 9 -3 5 2 -4 4 -4
13 2 19 6 8 3 12 -8 12 -11 0 -17 -9 -18 -26z"/>
<path d="M3990 1541 c-8 -6 -19 -7 -25 -4 -5 3 -4 0 3 -8 10 -11 15 -10 29 4
19 19 16 22 -7 8z"/>
<path d="M3953 1483 c0 -9 4 -10 14 -2 7 6 13 12 13 14 0 1 -6 2 -13 2 -8 0
-14 -6 -14 -14z"/>
<path d="M3749 1318 c-10 -35 5 -65 17 -34 3 9 11 13 18 9 6 -4 5 1 -3 10 -11
15 -29 23 -32 15z"/>
<path d="M230 3411 c0 -5 9 -13 20 -16 11 -4 17 -11 14 -17 -4 -7 -2 -8 5 -4
14 9 7 22 -20 36 -12 7 -19 7 -19 1z"/>
<path d="M414 3412 c5 -8 -1 -11 -15 -9 -18 1 -23 -3 -23 -23 0 -17 6 -26 19
-27 15 -2 16 -1 5 5 -23 11 -22 44 0 37 21 -7 36 10 19 21 -8 4 -9 3 -5 -4z"/>
<path d="M510 3384 c5 -12 6 -24 4 -27 -3 -3 -2 -7 3 -10 5 -3 8 9 8 27 0 18
-5 33 -12 33 -8 0 -9 -7 -3 -23z"/>
<path d="M605 3399 c-4 -6 -14 -8 -22 -4 -13 4 -14 3 -3 -10 7 -9 13 -14 14
-13 1 2 8 11 15 21 7 9 11 17 8 17 -3 0 -9 -5 -12 -11z"/>
<path d="M426 3385 c-11 -8 -16 -15 -10 -15 5 0 18 7 28 15 11 8 16 15 10 15
-5 0 -18 -7 -28 -15z"/>
<path d="M663 3384 c9 -11 15 -23 12 -26 -3 -3 5 -13 17 -24 23 -19 23 -19 5
2 -9 11 -15 23 -12 26 3 3 -5 13 -17 24 -23 19 -23 19 -5 -2z"/>
<path d="M340 3380 c0 -5 5 -10 10 -10 6 0 10 5 10 10 0 6 -4 10 -10 10 -5 0
-10 -4 -10 -10z"/>
<path d="M460 3380 c-9 -6 -10 -10 -3 -10 6 0 15 5 18 10 8 12 4 12 -15 0z"/>
<path d="M619 3373 c-13 -16 -12 -17 4 -4 16 13 21 21 13 21 -2 0 -10 -8 -17
-17z"/>
<path d="M1996 3382 c-2 -4 4 -13 15 -20 22 -14 25 -7 5 14 -8 8 -17 11 -20 6z"/>
<path d="M875 3371 c-3 -5 -2 -12 3 -15 5 -3 9 1 9 9 0 17 -3 19 -12 6z"/>
<path d="M266 3355 c-11 -8 -16 -18 -11 -22 4 -5 10 -3 12 4 2 7 10 11 16 9 7
-1 9 -1 4 1 -4 3 -5 9 -1 14 7 12 2 11 -20 -6z"/>
<path d="M544 3362 c4 -3 14 -7 22 -8 9 -1 13 0 10 4 -4 3 -14 7 -22 8 -9 1
-13 0 -10 -4z"/>
<path d="M704 3362 c4 -3 14 -7 22 -8 9 -1 13 0 10 4 -4 3 -14 7 -22 8 -9 1
-13 0 -10 -4z"/>
<path d="M362 3344 c10 -10 20 -16 22 -13 3 3 -5 11 -17 18 -21 13 -21 12 -5
-5z"/>
<path d="M430 3349 c0 -5 5 -7 10 -4 6 3 10 8 10 11 0 2 -4 4 -10 4 -5 0 -10
-5 -10 -11z"/>
<path d="M480 3340 c-12 -7 -10 -9 7 -7 12 0 19 5 17 9 -6 10 -6 10 -24 -2z"/>
<path d="M597 3332 c-15 -16 -15 -19 -2 -19 8 0 13 3 10 5 -3 3 0 11 6 19 17
20 5 16 -14 -5z"/>
<path d="M276 3315 c-23 -23 -20 -32 4 -10 19 18 20 17 20 -3 0 -12 -3 -21 -7
-20 -5 1 -17 -3 -29 -9 -17 -10 -23 -9 -35 6 -9 9 -14 23 -11 31 3 13 2 12 -7
0 -6 -8 -11 -11 -11 -6 0 5 -9 -1 -20 -14 -26 -30 -26 -38 0 -15 20 18 21 18
43 -2 12 -11 29 -18 37 -15 13 4 13 3 1 -11 -9 -11 -10 -17 -2 -17 6 0 11 5
11 10 0 6 8 10 18 11 14 0 14 2 -3 9 -19 8 -18 11 7 14 16 1 23 35 10 48 -6 6
-15 3 -26 -7z"/>
<path d="M237 3300 c3 -11 7 -20 9 -20 2 0 4 9 4 20 0 11 -4 20 -9 20 -5 0 -7
-9 -4 -20z"/>
<path d="M392 3300 c0 -14 2 -19 5 -12 2 6 2 18 0 25 -3 6 -5 1 -5 -13z"/>
<path d="M478 3313 c7 -3 16 -2 19 1 4 3 -2 6 -13 5 -11 0 -14 -3 -6 -6z"/>
<path d="M555 3310 c-4 -6 -11 -8 -16 -5 -5 4 -9 1 -9 -4 0 -16 16 -13 30 4 7
8 10 15 7 15 -3 0 -9 -5 -12 -10z"/>
<path d="M440 3295 c-7 -9 -11 -17 -9 -20 3 -2 10 5 17 15 14 24 10 26 -8 5z"/>
<path d="M725 3301 c3 -3 17 -6 31 -7 13 0 22 2 19 5 -3 3 -17 6 -31 7 -13 0
-22 -2 -19 -5z"/>
<path d="M790 3305 c0 -7 30 -13 34 -7 3 4 -4 9 -15 9 -10 1 -19 0 -19 -2z"/>
<path d="M470 3281 c0 -6 5 -13 12 -17 6 -4 8 -3 4 4 -3 5 0 13 6 15 8 3 6 6
-4 6 -10 1 -18 -3 -18 -8z"/>
<path d="M644 3279 c-3 -6 2 -18 12 -27 17 -16 17 -16 5 0 -7 9 -10 22 -6 28
3 5 4 10 1 10 -3 0 -8 -5 -12 -11z"/>
<path d="M673 3273 c0 -9 4 -10 14 -2 7 6 13 12 13 14 0 1 -6 2 -13 2 -8 0
-14 -6 -14 -14z"/>
<path d="M715 3283 c3 -3 -3 -16 -12 -27 -14 -15 -14 -18 -2 -8 9 6 18 9 22 6
3 -3 4 1 3 10 -1 8 -5 18 -9 21 -4 3 -5 2 -2 -2z"/>
<path d="M446 3263 c-8 -20 9 -40 19 -22 6 8 4 10 -5 4 -9 -5 -10 -2 -5 14 8
25 0 29 -9 4z"/>
<path d="M815 3270 c-4 -6 -10 -8 -15 -5 -4 3 -14 -3 -21 -13 -12 -15 -12 -16
1 -6 8 6 22 10 31 9 9 -2 16 4 16 11 0 17 -4 18 -12 4z"/>
<path d="M190 3255 c0 -8 2 -15 4 -15 2 0 6 7 10 15 3 8 1 15 -4 15 -6 0 -10
-7 -10 -15z"/>
<path d="M372 3266 c2 -1 10 -7 19 -14 13 -10 18 -10 22 0 3 8 -5 14 -20 14
-13 1 -23 1 -21 0z"/>
<path d="M566 3261 c-19 -7 -19 -8 0 -13 13 -3 21 0 21 8 0 8 -1 14 -1 13 -1
0 -10 -4 -20 -8z"/>
<path d="M202 3234 c-11 -12 -11 -17 2 -29 19 -20 32 -19 16 0 -10 12 -10 18
0 30 16 19 -1 19 -18 -1z"/>
<path d="M350 3241 c0 -6 7 -8 15 -5 10 4 13 0 10 -15 -5 -26 10 -35 32 -21
16 10 16 10 -3 5 -17 -4 -21 -1 -20 17 1 14 -6 24 -16 26 -10 2 -18 -1 -18 -7z"/>
<path d="M613 3225 c0 -7 8 -10 19 -7 10 2 18 6 18 7 0 1 -8 5 -18 7 -11 3
-19 0 -19 -7z"/>
<path d="M230 3221 c0 -5 5 -13 10 -16 6 -3 10 -2 10 4 0 5 -4 13 -10 16 -5 3
-10 2 -10 -4z"/>
<path d="M290 3223 c5 -2 10 -9 10 -14 0 -6 -4 -8 -8 -5 -4 2 -14 0 -22 -5
-11 -7 -8 -8 10 -6 26 4 35 28 12 33 -7 1 -8 0 -2 -3z"/>
<path d="M334 3215 c1 -8 6 -18 11 -22 4 -4 5 -3 2 4 -4 6 -2 13 5 15 8 3 6 6
-4 10 -10 4 -15 2 -14 -7z"/>
<path d="M426 3215 c10 -8 23 -15 28 -15 6 0 1 7 -10 15 -10 8 -23 15 -28 15
-6 0 -1 -7 10 -15z"/>
<path d="M470 3221 c0 -6 5 -13 12 -17 6 -4 8 -3 4 4 -3 5 0 13 6 15 8 3 6 6
-4 6 -10 1 -18 -3 -18 -8z"/>
<path d="M525 3220 c-3 -5 -1 -10 5 -10 6 0 8 -5 4 -12 -4 -7 -3 -8 4 -4 6 4
9 13 5 21 -6 18 -10 19 -18 5z"/>
<path d="M656 3213 c-6 -14 -5 -15 5 -6 7 7 10 15 7 18 -3 3 -9 -2 -12 -12z"/>
<path d="M793 3215 c0 -8 4 -12 9 -9 4 3 8 9 8 15 0 5 -4 9 -8 9 -5 0 -9 -7
-9 -15z"/>
<path d="M750 3216 c0 -2 8 -10 18 -17 15 -13 16 -12 3 4 -13 16 -21 21 -21
13z"/>
<path d="M839 3193 c-13 -16 -12 -17 4 -4 9 7 17 15 17 17 0 8 -8 3 -21 -13z"/>
<path d="M190 3185 c0 -8 4 -15 10 -15 5 0 7 7 4 15 -4 8 -8 15 -10 15 -2 0
-4 -7 -4 -15z"/>
<path d="M570 3190 c0 -5 -5 -9 -11 -7 -6 1 -14 -5 -16 -13 -4 -12 -3 -12 5
-2 5 8 13 13 18 12 5 -1 10 3 12 9 2 6 1 11 -2 11 -3 0 -6 -4 -6 -10z"/>
<path d="M733 3187 c0 -8 6 -14 14 -14 9 0 10 4 2 14 -6 7 -12 13 -14 13 -1 0
-2 -6 -2 -13z"/>
<path d="M150 3180 c0 -6 7 -10 15 -10 8 0 15 2 15 4 0 2 -7 6 -15 10 -8 3
-15 1 -15 -4z"/>
<path d="M217 3162 c-15 -14 -27 -21 -27 -14 0 6 -4 12 -10 12 -5 0 -7 -7 -4
-15 4 -8 9 -15 13 -15 10 0 65 50 60 55 -3 2 -17 -8 -32 -23z"/>
<path d="M350 3180 c-13 -8 -12 -10 3 -10 9 0 17 5 17 10 0 12 -1 12 -20 0z"/>
<path d="M410 3186 c0 -2 7 -7 16 -10 8 -3 12 -2 9 4 -6 10 -25 14 -25 6z"/>
<path d="M450 3179 c0 -5 5 -7 10 -4 6 3 10 8 10 11 0 2 -4 4 -10 4 -5 0 -10
-5 -10 -11z"/>
<path d="M592 3184 c3 -3 12 -6 20 -8 7 -1 20 -5 28 -10 12 -7 13 -6 3 4 -7 8
-23 15 -35 17 -12 2 -19 1 -16 -3z"/>
<path d="M270 3170 c-8 -5 -10 -10 -5 -10 6 0 17 5 25 10 8 5 11 10 5 10 -5 0
-17 -5 -25 -10z"/>
<path d="M512 3171 c-11 -7 -11 -9 0 -14 9 -3 15 1 15 9 0 8 -1 14 -1 14 -1 0
-7 -4 -14 -9z"/>
<path d="M310 3160 c0 -5 5 -10 10 -10 6 0 10 5 10 10 0 6 -4 10 -10 10 -5 0
-10 -4 -10 -10z"/>
<path d="M379 3163 c-1 -5 -1 -12 0 -16 1 -5 -7 -6 -18 -2 -26 8 -36 -22 -11
-35 29 -16 38 -11 10 5 -24 14 -23 16 10 19 8 0 14 7 12 15 -2 8 3 11 13 8 8
-4 15 -2 15 3 0 12 -29 14 -31 3z"/>
<path d="M470 3159 c0 -5 5 -7 10 -4 6 3 10 8 10 11 0 2 -4 4 -10 4 -5 0 -10
-5 -10 -11z"/>
<path d="M668 3152 c3 -9 1 -13 -5 -9 -5 3 -10 0 -10 -7 0 -8 7 -12 15 -8 11
4 13 1 7 -9 -4 -8 -4 -11 0 -6 13 11 12 54 -1 54 -7 0 -10 -7 -6 -15z"/>
<path d="M880 3155 c-7 -9 -11 -17 -9 -20 3 -2 10 5 17 15 14 24 10 26 -8 5z"/>
<path d="M150 3151 c0 -7 -10 -22 -22 -32 -11 -11 -19 -21 -17 -23 2 -2 16 6
30 18 19 16 24 27 18 37 -7 12 -9 12 -9 0z"/>
<path d="M240 3152 c0 -6 -12 -18 -27 -26 -17 -9 -22 -15 -12 -16 19 0 55 37
46 47 -4 3 -7 1 -7 -5z"/>
<path d="M419 3150 c-5 -29 -2 -33 21 -37 18 -2 21 -1 10 6 -8 5 -18 7 -23 4
-5 -3 -6 4 -2 16 3 11 4 21 1 21 -3 0 -7 -4 -7 -10z"/>
<path d="M450 3145 c0 -8 4 -15 10 -15 5 0 7 7 4 15 -4 8 -8 15 -10 15 -2 0
-4 -7 -4 -15z"/>
<path d="M550 3145 c-7 -9 -8 -15 -2 -15 5 0 12 7 16 15 3 8 4 15 2 15 -2 0
-9 -7 -16 -15z"/>
<path d="M590 3150 c-11 -7 -11 -10 -2 -10 7 0 10 -4 7 -10 -4 -6 1 -7 11 -3
13 5 15 3 9 -7 -6 -9 -4 -11 5 -5 10 6 10 11 -3 20 -9 7 -14 15 -10 18 9 10 0
8 -17 -3z"/>
<path d="M727 3146 c-5 -11 -3 -15 5 -10 8 5 9 2 5 -9 -9 -24 0 -21 14 4 6 13
7 19 1 15 -6 -3 -12 -1 -14 6 -3 7 -7 5 -11 -6z"/>
<path d="M265 3140 c2 -4 16 -7 30 -7 32 0 25 9 -10 12 -14 2 -23 0 -20 -5z"/>
<path d="M495 3140 c3 -5 8 -10 11 -10 2 0 4 5 4 10 0 6 -5 10 -11 10 -5 0 -7
-4 -4 -10z"/>
<path d="M250 3123 c0 -4 5 -15 10 -23 8 -13 10 -13 10 2 0 9 -4 20 -10 23 -5
3 -10 3 -10 -2z"/>
<path d="M393 3113 c0 -12 3 -20 6 -18 2 3 10 -3 18 -13 13 -16 13 -15 4 3
-22 43 -30 51 -28 28z"/>
<path d="M475 3120 c-3 -5 -1 -10 4 -10 6 0 11 5 11 10 0 6 -2 10 -4 10 -3 0
-8 -4 -11 -10z"/>
<path d="M757 3117 c-3 -8 -2 -20 3 -26 5 -9 8 -4 8 13 0 29 -3 32 -11 13z"/>
<path d="M170 3111 c0 -10 19 -25 25 -20 1 2 -3 10 -11 17 -8 7 -14 8 -14 3z"/>
<path d="M290 3112 c0 -6 -7 -18 -16 -26 -8 -9 -10 -16 -4 -16 6 0 13 7 16 15
5 12 10 13 20 4 20 -16 17 -29 -3 -23 -15 5 -16 4 -3 -5 26 -18 34 6 11 35
-11 15 -21 22 -21 16z"/>
<path d="M334 3096 c17 -13 33 -23 38 -20 4 3 7 -5 5 -17 -1 -18 3 -23 22 -23
14 0 26 6 29 14 2 9 0 11 -5 5 -14 -17 -43 -14 -40 4 1 9 -2 18 -8 20 -5 2
-23 12 -40 23 l-30 20 29 -26z"/>
<path d="M496 3105 c-3 -8 -1 -15 4 -15 6 0 10 7 10 15 0 8 -2 15 -4 15 -2 0
-6 -7 -10 -15z"/>
<path d="M845 3110 c-16 -7 -17 -9 -3 -9 9 -1 20 4 23 9 7 11 7 11 -20 0z"/>
<path d="M918 3113 c7 -3 16 -2 19 1 4 3 -2 6 -13 5 -11 0 -14 -3 -6 -6z"/>
<path d="M150 3103 c0 -7 5 -15 10 -18 6 -3 10 -15 10 -26 0 -10 4 -19 10 -19
11 0 3 26 -17 55 -7 11 -13 14 -13 8z"/>
<path d="M220 3098 c-12 -8 -11 -9 3 -4 12 4 17 2 14 -6 -2 -7 -15 -12 -28
-11 -13 1 -19 -1 -12 -3 7 -3 11 -11 9 -17 -1 -7 -1 -9 1 -4 3 4 9 5 14 1 5
-3 9 0 9 7 0 10 3 10 12 1 7 -7 17 -12 23 -12 5 0 2 5 -7 11 -9 5 -15 16 -12
23 7 19 -9 27 -26 14z"/>
<path d="M588 3092 c9 -10 19 -17 21 -16 6 5 -20 34 -30 34 -5 0 -1 -8 9 -18z"/>
<path d="M625 3099 c-4 -6 -4 -13 -1 -16 3 -4 6 -1 6 6 0 8 6 11 16 7 8 -3 12
-2 9 4 -8 13 -22 13 -30 -1z"/>
<path d="M677 3091 c-10 -14 -10 -14 4 -4 9 7 18 10 21 7 3 -3 8 -1 12 4 9 16
-24 9 -37 -7z"/>
<path d="M787 3095 c3 -8 9 -12 14 -9 12 7 11 11 -5 17 -10 4 -13 1 -9 -8z"/>
<path d="M880 3100 c-9 -6 -10 -10 -3 -10 6 0 15 5 18 10 8 12 4 12 -15 0z"/>
<path d="M1015 3100 c-3 -5 -1 -10 4 -10 6 0 11 5 11 10 0 6 -2 10 -4 10 -3 0
-8 -4 -11 -10z"/>
<path d="M556 3088 c5 -8 1 -9 -12 -4 -14 5 -16 4 -7 -4 7 -8 17 -9 28 -3 16
9 16 10 1 16 -12 5 -15 3 -10 -5z"/>
<path d="M734 3092 c4 -7 1 -12 -8 -12 -19 0 -21 -16 -3 -26 6 -4 9 -4 5 1 -4
4 0 13 9 20 13 9 13 14 3 20 -9 5 -11 4 -6 -3z"/>
<path d="M130 3082 c0 -6 5 -12 10 -14 6 -2 1 -14 -11 -27 -12 -13 -16 -22 -9
-19 7 2 19 13 27 25 12 17 11 22 -2 33 -9 7 -15 8 -15 2z"/>
<path d="M473 3073 c4 -6 1 -13 -5 -16 -7 -2 0 -4 15 -4 15 0 27 0 25 1 -2 1
-12 8 -22 16 -11 8 -17 10 -13 3z"/>
<path d="M516 3065 c10 -8 23 -15 28 -15 6 0 1 7 -10 15 -10 8 -23 15 -28 15
-6 0 -1 -7 10 -15z"/>
<path d="M344 3062 c3 -5 0 -12 -6 -15 -7 -2 -10 -7 -7 -11 3 -4 12 0 18 8 9
11 9 16 0 22 -7 4 -9 3 -5 -4z"/>
<path d="M574 3053 c2 -10 11 -18 22 -18 10 0 27 -11 36 -25 22 -31 24 -18 3
14 -11 16 -22 22 -36 19 -15 -4 -18 -2 -13 11 3 9 2 16 -4 16 -6 0 -9 -8 -8
-17z"/>
<path d="M631 3053 c7 -12 15 -20 18 -17 3 2 -3 12 -13 22 -17 16 -18 16 -5
-5z"/>
<path d="M676 3057 c3 -10 9 -15 12 -12 3 3 0 11 -7 18 -10 9 -11 8 -5 -6z"/>
<path d="M770 3060 c0 -5 5 -10 10 -10 6 0 10 5 10 10 0 6 -4 10 -10 10 -5 0
-10 -4 -10 -10z"/>
<path d="M905 3060 c3 -5 8 -10 11 -10 2 0 4 5 4 10 0 6 -5 10 -11 10 -5 0 -7
-4 -4 -10z"/>
<path d="M945 3057 c-14 -11 -15 -16 -5 -22 9 -6 11 -4 5 5 -5 9 -1 11 16 6
13 -3 18 -3 11 0 -6 3 -10 10 -6 15 7 13 1 11 -21 -4z"/>
<path d="M835 3049 c-4 -6 -5 -12 -2 -15 2 -3 7 2 10 11 7 17 1 20 -8 4z"/>
<path d="M85 3040 c-3 -5 -1 -10 4 -10 6 0 11 5 11 10 0 6 -2 10 -4 10 -3 0
-8 -4 -11 -10z"/>
<path d="M275 3040 c-3 -6 -17 -7 -30 -4 -12 3 -26 1 -29 -5 -4 -5 -14 -8 -24
-5 -14 5 -15 4 -2 -5 9 -6 18 -7 24 -1 17 17 33 11 51 -16 16 -26 16 -26 -7
-19 -12 4 -20 4 -16 0 11 -11 59 -15 52 -4 -3 5 0 9 5 9 6 0 11 5 11 11 0 8
-5 8 -15 -1 -12 -10 -16 -9 -22 5 -4 12 0 23 12 31 10 8 14 14 8 14 -7 0 -15
-5 -18 -10z"/>
<path d="M431 3027 c-13 -21 -12 -21 5 -5 10 10 16 20 13 22 -3 3 -11 -5 -18
-17z"/>
<path d="M739 3043 c-1 -5 -1 -12 0 -17 1 -5 -5 -6 -14 -3 -8 4 -15 2 -15 -4
0 -6 8 -9 18 -7 9 2 16 10 15 16 -5 20 15 13 22 -8 3 -11 11 -20 16 -20 5 0 2
11 -7 25 -16 24 -33 33 -35 18z"/>
<path d="M993 3033 c0 -9 4 -10 14 -2 7 6 13 12 13 14 0 1 -6 2 -13 2 -8 0
-14 -6 -14 -14z"/>
<path d="M310 3035 c0 -5 5 -17 10 -25 5 -8 10 -10 10 -5 0 6 -5 17 -10 25 -5
8 -10 11 -10 5z"/>
<path d="M464 3025 c-10 -8 -14 -15 -9 -16 6 0 -1 -5 -15 -10 l-25 -8 25 2
c14 1 24 8 23 15 -2 6 4 12 12 12 8 0 15 5 15 10 0 13 -3 13 -26 -5z"/>
<path d="M517 3027 c-3 -8 -2 -20 3 -26 5 -9 8 -4 8 13 0 29 -3 32 -11 13z"/>
<path d="M554 3032 c3 -5 0 -13 -6 -15 -8 -3 -6 -6 5 -6 19 -1 23 14 5 25 -6
4 -8 3 -4 -4z"/>
<path d="M145 3017 c-25 -28 -23 -35 14 -60 38 -25 39 -26 56 -7 10 11 15 26
12 35 -4 10 0 15 11 16 11 0 13 2 4 6 -14 6 -52 -24 -52 -40 0 -6 7 -2 15 9 8
10 15 14 15 8 0 -5 -6 -18 -12 -27 -12 -15 -15 -15 -38 4 -17 14 -19 19 -7 15
11 -3 16 -2 12 5 -4 5 -16 7 -28 3 -21 -6 -21 -5 -5 12 14 14 20 15 32 4 20
-16 21 -4 2 16 -17 17 -18 17 -31 1z"/>
<path d="M346 3022 c-2 -4 4 -8 14 -8 10 0 16 4 14 8 -3 4 -9 8 -14 8 -5 0
-11 -4 -14 -8z"/>
<path d="M660 3019 c0 -5 5 -7 10 -4 6 3 10 8 10 11 0 2 -4 4 -10 4 -5 0 -10
-5 -10 -11z"/>
<path d="M390 3010 c0 -5 5 -10 10 -10 6 0 10 5 10 10 0 6 -4 10 -10 10 -5 0
-10 -4 -10 -10z"/>
<path d="M470 2980 c-12 -16 -17 -30 -11 -30 6 0 11 5 11 11 0 5 5 7 12 3 7
-4 8 -3 4 4 -4 7 -4 18 0 24 6 9 10 5 15 -12 6 -23 7 -23 8 -3 2 35 -16 36
-39 3z"/>
<path d="M575 3001 c-3 -5 0 -13 6 -16 5 -4 8 -13 6 -19 -3 -7 1 -13 9 -13 18
0 18 6 -3 30 -17 19 -17 20 0 14 9 -4 17 -2 17 3 0 13 -27 13 -35 1z"/>
<path d="M688 3003 c6 -2 9 -10 6 -15 -4 -7 -2 -8 5 -4 13 9 5 26 -12 25 -9 0
-8 -2 1 -6z"/>
<path d="M937 2999 c7 -7 15 -10 18 -7 3 3 -2 9 -12 12 -14 6 -15 5 -6 -5z"/>
<path d="M623 2980 c1 -14 6 -23 11 -22 5 2 12 -2 16 -8 5 -9 9 -9 14 -1 6 10
2 12 -21 10 -5 0 -11 10 -15 23 -7 22 -7 22 -5 -2z"/>
<path d="M552 2976 c7 -8 15 -12 17 -11 5 6 -10 25 -20 25 -5 0 -4 -6 3 -14z"/>
<path d="M660 2980 c0 -5 5 -10 10 -10 6 0 10 5 10 10 0 6 -4 10 -10 10 -5 0
-10 -4 -10 -10z"/>
<path d="M715 2979 c-11 -16 -1 -19 13 -3 7 8 8 14 3 14 -5 0 -13 -5 -16 -11z"/>
<path d="M927 2979 c7 -7 15 -10 18 -7 3 3 -2 9 -12 12 -14 6 -15 5 -6 -5z"/>
<path d="M960 2969 c-7 -11 -9 -23 -7 -26 3 -2 8 5 12 16 3 12 11 18 17 15 7
-4 8 -2 4 4 -10 16 -14 15 -26 -9z"/>
<path d="M236 2952 c-4 -12 -12 -22 -17 -22 -5 0 -9 -5 -9 -11 0 -8 5 -7 15 1
14 12 15 10 11 -13 -3 -15 -4 -27 -2 -27 1 0 17 11 36 25 21 15 28 25 18 25
-9 0 -18 -7 -22 -15 -3 -8 -10 -15 -16 -15 -8 0 -8 6 0 20 7 13 7 26 2 37 -9
14 -10 14 -16 -5z"/>
<path d="M336 2961 c-3 -5 1 -14 9 -21 12 -10 18 -10 30 0 18 15 11 30 -15 30
-10 0 -21 -4 -24 -9z m36 -13 c-9 -9 -15 -9 -24 0 -9 9 -7 12 12 12 19 0 21
-3 12 -12z"/>
<path d="M984 2955 c-18 -14 -18 -14 4 -8 12 3 22 9 22 14 0 12 -3 11 -26 -6z"/>
<path d="M278 2953 c7 -3 16 -2 19 1 4 3 -2 6 -13 5 -11 0 -14 -3 -6 -6z"/>
<path d="M476 2942 c-3 -5 1 -9 9 -9 8 0 15 4 15 9 0 4 -4 8 -9 8 -6 0 -12 -4
-15 -8z"/>
<path d="M733 2931 c-20 -16 -20 -20 -7 -25 19 -7 44 10 44 30 0 19 -10 17
-37 -5z m22 -10 c-3 -6 -11 -11 -17 -11 -6 0 -6 6 2 15 14 17 26 13 15 -4z"/>
<path d="M815 2930 c-3 -5 -1 -10 4 -10 6 0 11 5 11 10 0 6 -2 10 -4 10 -3 0
-8 -4 -11 -10z"/>
<path d="M70 2850 c0 -5 5 -10 10 -10 6 0 10 5 10 10 0 6 -4 10 -10 10 -5 0
-10 -4 -10 -10z"/>
<path d="M270 2820 c0 -5 4 -10 9 -10 6 0 13 5 16 10 3 6 -1 10 -9 10 -9 0
-16 -4 -16 -10z"/>
<path d="M4041 1594 c-7 -8 -11 -17 -9 -20 3 -2 13 5 23 16 10 11 14 20 9 20
-5 -1 -15 -8 -23 -16z"/>
<path d="M4484 1112 c3 -5 0 -12 -6 -15 -7 -2 -10 -7 -7 -11 3 -4 12 0 18 8 9
11 9 16 0 22 -7 4 -9 3 -5 -4z"/>
<path d="M4261 816 c-9 -10 -8 -16 4 -26 13 -11 13 -14 -1 -27 -8 -9 -13 -18
-10 -20 7 -7 36 23 36 36 0 6 -6 11 -12 11 -9 0 -8 4 2 10 13 9 13 10 0 10
-13 0 -13 1 0 10 8 5 10 10 4 10 -6 0 -17 -6 -23 -14z"/>
<path d="M4310 766 c0 -2 7 -7 16 -10 8 -3 12 -2 9 4 -6 10 -25 14 -25 6z"/>
</g>
</svg>
